<?xml version="1.0" encoding="utf-8"?>
<!-- Generator: Adobe Illustrator 27.5.0, SVG Export Plug-In . SVG Version: 6.00 Build 0)  -->
<svg version="1.1" id="Layer_1" xmlns="http://www.w3.org/2000/svg" xmlns:xlink="http://www.w3.org/1999/xlink" x="0px" y="0px"
	 viewBox="0 0 1000 180" xml:space="preserve" fill="white" >
<style type="text/css">
	.st0{opacity:0.1;}
	.st1{opacity:0.2;}
	.st2{opacity:0.3;}
	.st3{opacity:0.4;}
	.st4{opacity:0.5;}
	.st5{opacity:0.6;}
	.st6{opacity:0.7;}
	.st7{opacity:0.8;}
        
</style>
<g>
	<g>
		<path  d="M393.82,131.24l-0.77,4.4c-0.54,3.05-1.63,5.92-3.26,8.61c-1.63,2.69-3.91,5.04-6.83,7.05c-2.92,2.01-6.43,3.6-10.55,4.76
			c-4.11,1.16-8.92,1.74-14.41,1.74c-10.75,0-18.22-2.11-22.42-6.32c-4.2-4.21-5.82-9.43-4.84-15.66l19.8-112.29h15.57l-4.13,23.45
			l-0.58,3.3c-0.26,1.47-0.24,2.75,0.05,3.85c0.29,1.1,0.73,2.08,1.32,2.93c0.58,0.86,1.23,1.5,1.95,1.92
			c0.72,0.43,1.3,0.76,1.75,1.01c0.47,0.12,1.61,0.55,3.44,1.28c1.82,0.73,3.97,1.56,6.43,2.47c2.46,0.92,5.01,1.86,7.65,2.84
			c2.63,0.98,4.99,1.83,7.06,2.56c4.11,1.59,7.03,4.28,8.74,8.06c1.72,3.79,2.16,8,1.34,12.64l-0.78,4.4L393.82,131.24z
			 M384.96,94.24h-0.18l0.19-1.1c0.41-2.32,0.32-4.24-0.26-5.77c-0.59-1.53-1.34-2.78-2.27-3.75c-1.15-1.1-2.47-1.95-3.95-2.57
			c-1.82-0.73-3.77-1.47-5.84-2.2c-1.72-0.61-3.56-1.31-5.49-2.11c-1.94-0.79-3.83-1.5-5.67-2.11c-0.81-0.24-1.62-0.67-2.43-1.28
			c-0.81-0.61-1.22-1.58-1.22-2.93l-4.01,22.71l-0.19,1.1l-6.85,38.83l0.03-0.18c-0.21,1.22-0.2,2.51,0.05,3.85
			c0.25,1.35,0.86,2.56,1.83,3.66c0.97,1.1,2.4,1.99,4.29,2.66c1.9,0.67,4.37,1.01,7.42,1.01c5.86,0,10.13-1.19,12.81-3.57
			c2.68-2.38,4.36-5.16,5.04-8.33L384.96,94.24z"/>
		<path d="M455.79,59.25c7.33,0,12.91,0.89,16.75,2.65c3.84,1.77,6.58,3.88,8.23,6.32c1.65,2.44,2.49,4.92,2.54,7.42
			c0.04,2.5-0.05,4.43-0.28,5.77L482.21,86l-0.03,0.18l-0.71,4.03c-0.37,2.08-1.17,4.4-2.42,6.96c-1.25,2.56-3.59,5.31-7.04,8.24
			c-1.6,1.47-3.32,2.57-5.16,3.3c-1.84,0.73-3.46,1.28-4.87,1.65c-1.67,0.49-3.37,0.73-5.08,0.73h-13.92
			c-3.18,0-6.19,1.16-9.04,3.48c-2.85,2.32-4.58,5.19-5.18,8.61l-1.45,8.24c-0.52,2.93-0.38,5.25,0.42,6.96
			c0.33,0.86,0.75,1.59,1.26,2.2c0.5,0.61,1.32,1.16,2.46,1.65c0.89,0.49,2.06,0.92,3.53,1.28c1.46,0.37,3.41,0.55,5.86,0.55
			c3.17,0,5.74-0.34,7.69-1.01c1.95-0.67,3.33-1.25,4.15-1.74c1.8-1.22,3.16-2.69,4.07-4.4c0.91-1.71,1.54-3.54,1.89-5.5h15.57
			l-0.78,4.4c-0.58,3.3-1.83,6.35-3.72,9.16c-1.9,2.81-4.5,5.25-7.8,7.33c-2.34,1.47-5.43,2.75-9.29,3.84
			c-3.86,1.1-8.59,1.65-14.21,1.65c-4.15,0-7.7-0.34-10.63-1.01c-2.94-0.67-5.44-1.53-7.52-2.56c-2.08-1.04-3.73-2.23-4.96-3.57
			c-1.23-1.34-2.21-2.68-2.95-4.03c-1.64-3.17-2.03-6.84-1.17-10.99l0.74-4.21l1.45-8.24l6.53-37l0.03-0.18l0.81-4.58
			c0.26-1.47,0.84-3.42,1.76-5.86c0.92-2.44,2.63-4.88,5.14-7.33c2.51-2.44,5.99-4.55,10.46-6.32
			C442.56,60.14,448.46,59.25,455.79,59.25z M466.64,86l0.29-1.65c0.19-1.1,0.25-2.29,0.17-3.57c-0.08-1.28-0.56-2.5-1.46-3.66
			c-0.89-1.16-2.28-2.13-4.15-2.93c-1.88-0.79-4.46-1.19-7.76-1.19c-3.42,0-6.27,0.4-8.54,1.19c-2.28,0.8-4.09,1.74-5.45,2.84
			c-1.36,1.1-2.33,2.29-2.92,3.57c-0.59,1.28-0.98,2.41-1.15,3.39L435.32,86l-0.03,0.18l-0.26,1.47l-2.71,15.39
			c0.44-1.1,1.14-1.98,2.12-2.66c0.97-0.67,2.04-1.19,3.2-1.56c1.16-0.37,2.31-0.61,3.43-0.73c1.12-0.12,1.98-0.18,2.6-0.18h10.44
			c2.81,0,5.43-1.01,7.86-3.02c2.43-2.02,3.9-4.43,4.39-7.24l0.26-1.47L466.64,86z"/>
		<path d="M532.9,59.25c7.33,0,12.91,0.89,16.75,2.65c3.84,1.77,6.58,3.88,8.23,6.32c1.65,2.44,2.49,4.92,2.54,7.42
			c0.04,2.5-0.05,4.43-0.28,5.77L559.33,86l-0.03,0.18l-0.71,4.03c-0.37,2.08-1.17,4.4-2.42,6.96c-1.25,2.56-3.59,5.31-7.04,8.24
			c-1.6,1.47-3.32,2.57-5.16,3.3c-1.84,0.73-3.46,1.28-4.87,1.65c-1.67,0.49-3.37,0.73-5.08,0.73H520.1c-3.18,0-6.19,1.16-9.04,3.48
			c-2.85,2.32-4.58,5.19-5.18,8.61l-1.45,8.24c-0.52,2.93-0.38,5.25,0.42,6.96c0.33,0.86,0.75,1.59,1.26,2.2
			c0.5,0.61,1.32,1.16,2.46,1.65c0.89,0.49,2.06,0.92,3.53,1.28c1.46,0.37,3.41,0.55,5.86,0.55c3.17,0,5.74-0.34,7.69-1.01
			c1.95-0.67,3.33-1.25,4.15-1.74c1.8-1.22,3.16-2.69,4.07-4.4c0.91-1.71,1.54-3.54,1.89-5.5h15.57l-0.78,4.4
			c-0.58,3.3-1.83,6.35-3.72,9.16c-1.9,2.81-4.5,5.25-7.8,7.33c-2.34,1.47-5.43,2.75-9.29,3.84c-3.86,1.1-8.59,1.65-14.21,1.65
			c-4.15,0-7.7-0.34-10.63-1.01c-2.94-0.67-5.44-1.53-7.52-2.56c-2.08-1.04-3.73-2.23-4.96-3.57c-1.23-1.34-2.21-2.68-2.95-4.03
			c-1.64-3.17-2.03-6.84-1.17-10.99l0.74-4.21l1.45-8.24l6.53-37l0.03-0.18l0.81-4.58c0.26-1.47,0.84-3.42,1.76-5.86
			c0.92-2.44,2.63-4.88,5.14-7.33c2.51-2.44,5.99-4.55,10.46-6.32C519.68,60.14,525.57,59.25,532.9,59.25z M543.76,86l0.29-1.65
			c0.19-1.1,0.25-2.29,0.17-3.57c-0.08-1.28-0.56-2.5-1.46-3.66c-0.89-1.16-2.28-2.13-4.15-2.93c-1.88-0.79-4.46-1.19-7.76-1.19
			c-3.42,0-6.27,0.4-8.54,1.19c-2.28,0.8-4.09,1.74-5.45,2.84c-1.36,1.1-2.33,2.29-2.92,3.57c-0.59,1.28-0.98,2.41-1.15,3.39
			L512.43,86l-0.03,0.18l-0.26,1.47l-2.71,15.39c0.44-1.1,1.14-1.98,2.12-2.66c0.97-0.67,2.04-1.19,3.2-1.56
			c1.16-0.37,2.31-0.61,3.43-0.73c1.12-0.12,1.98-0.18,2.6-0.18h10.44c2.81,0,5.43-1.01,7.86-3.02c2.43-2.02,3.9-4.43,4.39-7.24
			l0.26-1.47L543.76,86z"/>
		<path d="M627.54,135.45c-0.26,1.47-0.85,3.42-1.77,5.86c-0.92,2.44-2.63,4.88-5.14,7.33c-2.51,2.44-6,4.55-10.46,6.32
			c-4.47,1.77-10.36,2.65-17.69,2.65s-12.91-0.89-16.75-2.65c-3.84-1.77-6.58-3.88-8.23-6.32c-1.65-2.44-2.49-4.91-2.54-7.42
			c-0.05-2.5,0.05-4.42,0.28-5.77l0.81-4.58h15.39l-0.29,1.65c-0.19,1.1-0.25,2.29-0.17,3.57c0.08,1.28,0.57,2.5,1.46,3.66
			c0.89,1.16,2.28,2.14,4.15,2.93c1.87,0.79,4.46,1.19,7.76,1.19c3.54,0,6.42-0.4,8.63-1.19c2.21-0.79,4-1.74,5.35-2.84
			c1.35-1.1,2.33-2.29,2.92-3.57c0.59-1.28,0.97-2.41,1.15-3.39l0.35-2.01l2.84-16.12l0.32-1.83c0.26-1.47,0.13-3.2-0.36-5.22
			c-0.5-2.01-2.24-3.57-5.22-4.67c-0.69-0.24-1.55-0.55-2.59-0.92c-1.03-0.37-1.95-0.73-2.74-1.1l-12.93-4.58
			c-0.45-0.24-0.79-0.37-1.03-0.37C584.47,94,580.12,91,578,87.09c-2.12-3.91-2.79-8.06-2.02-12.45l0.19-1.1l0.58-3.3l3.94-22.35
			l0.68-3.85c0.24-1.34,0.82-3.27,1.75-5.77c0.93-2.5,2.64-4.98,5.16-7.42c2.51-2.44,5.99-4.55,10.46-6.32
			c4.46-1.77,10.36-2.66,17.69-2.66s12.91,0.89,16.75,2.66c3.84,1.77,6.58,3.88,8.23,6.32c1.64,2.44,2.49,4.92,2.54,7.42
			c0.05,2.5-0.05,4.43-0.28,5.77l-0.84,4.76h-15.57l0.35-2.01c0.2-1.1,0.22-2.29,0.08-3.57c-0.14-1.28-0.7-2.47-1.66-3.57
			c-0.97-1.1-2.42-2.04-4.35-2.84c-1.94-0.79-4.68-1.19-8.22-1.19c-3.3,0-6.02,0.4-8.18,1.19c-2.16,0.8-3.89,1.8-5.2,3.02
			c-1.32,1.22-2.24,2.47-2.77,3.75c-0.53,1.28-0.89,2.47-1.09,3.57l-0.29,1.65l-3.78,21.43l-0.29,1.65
			c-0.28,1.59-0.14,3.36,0.43,5.31c0.57,1.95,2.35,3.48,5.33,4.58c0.44,0.25,1.01,0.49,1.7,0.73c0.69,0.25,1.38,0.49,2.07,0.73
			c2.07,0.73,4.45,1.59,7.15,2.56c2.69,0.98,5.18,1.96,7.45,2.93c2.33,0.61,4.28,1.35,5.84,2.2c2.07,0.73,3.8,1.8,5.21,3.2
			c1.4,1.41,2.55,3.02,3.45,4.86c1.71,3.42,2.21,7.21,1.48,11.36l-0.39,2.2l-3.23,18.32L627.54,135.45z"/>
		<path d="M718.83,73.72l-0.19,1.1c-0.77,4.4-2.95,8.55-6.5,12.46c-3.56,3.91-9,6.9-16.33,8.98c-0.25,0-0.63,0.12-1.16,0.37
			c-1.94,0.61-4.04,1.28-6.31,2.02c-2.27,0.73-4.37,1.4-6.31,2.01c-2.33,0.73-4.53,1.47-6.61,2.2c-1.53,0.37-3.04,0.98-4.54,1.83
			c-1.23,0.73-2.4,1.68-3.52,2.84c-1.12,1.16-1.84,2.66-2.17,4.49l-0.03,0.18l-7.78,44.15H641.8l18.93-107.34l0.84-4.76
			c0.24-1.34,0.82-3.26,1.75-5.77c0.93-2.5,2.68-4.98,5.25-7.42c2.56-2.44,6.08-4.55,10.55-6.32c4.46-1.77,10.36-2.66,17.69-2.66
			c7.33,0,12.91,0.89,16.75,2.66c3.84,1.77,6.58,3.88,8.23,6.32c1.65,2.44,2.49,4.92,2.54,7.42c0.04,2.5-0.05,4.43-0.28,5.77
			l-0.68,3.85L718.83,73.72z M673.38,88.93c1.76-0.61,3.61-1.22,5.54-1.83c1.94-0.61,3.88-1.25,5.83-1.92
			c1.95-0.67,3.7-1.25,5.25-1.74c0.77-0.24,1.55-0.49,2.33-0.73c0.78-0.24,1.49-0.49,2.14-0.73c3.37-1.1,5.65-2.62,6.85-4.58
			c1.2-1.95,1.94-3.72,2.22-5.31l0.29-1.65l3.78-21.43l0.35-2.01c0.2-1.1,0.22-2.29,0.08-3.57c-0.14-1.28-0.69-2.47-1.66-3.57
			c-0.97-1.1-2.42-2.04-4.36-2.84c-1.94-0.79-4.67-1.19-8.21-1.19c-3.3,0-6.02,0.4-8.18,1.19c-2.15,0.79-3.89,1.8-5.2,3.02
			c-1.31,1.22-2.24,2.47-2.77,3.76c-0.53,1.28-0.89,2.47-1.09,3.57l-0.29,1.65l-7.3,41.4C670.17,90.03,671.63,89.54,673.38,88.93z"
			/>
		<path d="M788.5,133.62l-0.32,1.83c-0.26,1.47-0.85,3.42-1.77,5.86c-0.92,2.44-2.63,4.88-5.14,7.33c-2.51,2.44-6,4.55-10.46,6.32
			c-4.47,1.77-10.36,2.65-17.69,2.65s-12.91-0.89-16.75-2.65c-3.84-1.77-6.58-3.88-8.23-6.32c-1.65-2.44-2.49-4.91-2.54-7.42
			c-0.05-2.5,0.05-4.42,0.28-5.77l0.81-4.58l14.47-82.06l0.84-4.76c0.24-1.34,0.82-3.27,1.75-5.77c0.93-2.5,2.64-4.98,5.16-7.42
			c2.51-2.44,5.99-4.55,10.46-6.32c4.46-1.77,10.36-2.66,17.69-2.66s12.91,0.89,16.75,2.66c3.84,1.77,6.58,3.88,8.23,6.32
			c1.64,2.44,2.49,4.92,2.54,7.42c0.05,2.5-0.05,4.43-0.28,5.77l-0.32,1.83L788.5,133.62z M773.41,130.87h0.18l14.47-82.06h-0.18
			l0.35-2.01c0.2-1.1,0.22-2.29,0.08-3.57c-0.14-1.28-0.66-2.47-1.57-3.57c-0.91-1.1-2.36-2.04-4.35-2.84
			c-2-0.79-4.77-1.19-8.31-1.19c-3.3,0-6.02,0.4-8.18,1.19c-2.16,0.8-3.89,1.8-5.2,3.02c-1.32,1.22-2.24,2.47-2.77,3.75
			c-0.53,1.28-0.89,2.47-1.09,3.57l-0.29,1.65l-14.47,82.06l-0.29,1.65c-0.19,1.1-0.25,2.29-0.17,3.57c0.08,1.28,0.57,2.5,1.46,3.66
			c0.89,1.16,2.28,2.14,4.15,2.93c1.87,0.79,4.46,1.19,7.76,1.19c3.54,0,6.45-0.4,8.72-1.19c2.27-0.79,4.06-1.74,5.36-2.84
			c1.29-1.1,2.24-2.29,2.83-3.57c0.59-1.28,0.97-2.41,1.15-3.39L773.41,130.87z"/>
		<path d="M855.75,156.34l-9.77-56.79c-1.43,0.49-2.73,0.95-3.91,1.37c-1.17,0.43-2.21,0.76-3.11,1.01l-2.91,0.92
			c-1.55,0.49-3.06,1.1-4.54,1.83c-1.21,0.61-2.34,1.5-3.4,2.66c-1.06,1.16-1.8,2.59-2.22,4.3l-7.88,44.7h-15.57l19.09-108.26
			l0.68-3.85c0.24-1.34,0.82-3.26,1.75-5.77c0.93-2.5,2.64-4.98,5.16-7.42c2.5-2.44,5.99-4.55,10.46-6.32
			c4.46-1.77,10.36-2.66,17.68-2.66s12.91,0.89,16.75,2.66c3.84,1.77,6.58,3.88,8.23,6.32c1.64,2.44,2.49,4.92,2.54,7.42
			c0.05,2.5-0.05,4.43-0.28,5.77l-0.84,4.76l-3.78,21.43l-0.78,4.4c-0.69,3.91-2.41,7.63-5.18,11.17
			c-2.76,3.54-6.89,6.35-12.38,8.43l10.7,61.91H855.75z M834.02,88.93c1.76-0.61,3.61-1.22,5.54-1.83c1.94-0.61,3.88-1.25,5.83-1.92
			c1.95-0.67,3.7-1.25,5.25-1.74c0.77-0.24,1.55-0.49,2.33-0.73c0.78-0.24,1.49-0.49,2.14-0.73c3.25-1.1,5.5-2.62,6.76-4.58
			c1.26-1.95,2.02-3.66,2.28-5.13l4.26-24.18l0.19-1.1c0.2-1.1,0.22-2.29,0.08-3.57c-0.14-1.28-0.69-2.47-1.66-3.57
			c-0.97-1.1-2.42-2.04-4.36-2.84c-1.94-0.79-4.67-1.19-8.21-1.19c-3.3,0-6.02,0.4-8.18,1.19c-2.15,0.79-3.89,1.8-5.2,3.02
			c-1.31,1.22-2.24,2.47-2.77,3.76c-0.53,1.28-0.89,2.47-1.09,3.57l-0.29,1.65l-7.3,41.4C830.81,90.03,832.27,89.54,834.02,88.93z"
			/>
		<path d="M962.96,36.54h-23.45l-21.12,119.8h-15.38l21.12-119.8h-23.45l2.29-13h13.01h49.27L962.96,36.54z"/>
	</g>
	<polygon class="st0" points="73.61,23.53 58.22,23.53 34.81,156.34 50.19,156.34 	"/>
	<polygon class="st1" points="104.38,23.53 88.99,23.53 65.58,156.34 80.96,156.34 	"/>
	<polygon class="st2" points="135.15,23.53 119.76,23.53 96.35,156.34 111.73,156.34 	"/>
	<polygon class="st3" points="165.92,23.53 150.53,23.53 127.12,156.34 142.5,156.34 	"/>
	<polygon class="st4" points="196.69,23.53 181.3,23.53 157.89,156.34 173.27,156.34 	"/>
	<polygon class="st5" points="227.46,23.53 212.07,23.53 188.66,156.34 204.04,156.34 	"/>
	<polygon class="st6" points="258.23,23.53 242.84,23.53 219.42,156.34 234.81,156.34 	"/>
	<polygon class="st7" points="289,23.53 273.61,23.53 250.19,156.34 265.58,156.34 	"/>
	<polygon class="st7" points="319.76,23.53 304.38,23.53 280.96,156.34 296.35,156.34 	"/>
</g>
</svg>
