<?xml version="1.0" encoding="utf-8"?>
<!-- Generator: Adobe Illustrator 27.5.0, SVG Export Plug-In . SVG Version: 6.00 Build 0)  -->
<svg version="1.1" id="Layer_1" xmlns="http://www.w3.org/2000/svg" xmlns:xlink="http://www.w3.org/1999/xlink" x="0px" y="0px"
	 viewBox="0 0 250 250" style="enable-background:new 0 0 250 250;" fill="white" xml:space="preserve">
<g>
	<path d="M203.79,132.12l14.37-9.84l-0.37-5.24c-0.64-9.02-2.56-17.83-5.72-26.19l-1.9-5.01l-17.56-2.69
		c-7.4-1.13-12.77-7.86-12.23-15.33l1.31-18l-4.38-2.97c0,0,0,0,0,0l0,0c-7.3-4.95-15.28-8.84-23.72-11.54l-5.09-1.63l-13.37,12.36
		c-5.49,5.08-14.12,5.09-19.62,0l-13.38-12.37l-5.09,1.63c-8.43,2.7-16.41,6.58-23.72,11.52l-4.39,2.97l1.32,18.04
		c0.55,7.47-4.83,14.21-12.24,15.34l-17.59,2.69l-1.89,5.01c-3.16,8.36-5.08,17.17-5.72,26.17l-0.37,5.24l14.4,9.85L57.21,117
		l-5.38-3.68c0.13-0.94,0.24-1.87,0.4-2.8c0.33-1.88,0.74-3.74,1.21-5.58c0.23-0.9,0.52-1.77,0.79-2.66l6.57-1
		c16.8-2.56,28.98-17.84,27.75-34.79l-0.52-7.04c0.79-0.46,1.56-0.94,2.37-1.37c1.61-0.86,3.25-1.66,4.93-2.4
		c0.83-0.37,1.68-0.68,2.53-1.01l5.22,4.83c12.48,11.53,32.03,11.53,44.5,0l5.21-4.82c0.84,0.34,1.69,0.65,2.52,1.01
		c1.67,0.74,3.31,1.53,4.92,2.39c0.81,0.43,1.59,0.92,2.39,1.38l-0.51,7.03c-1.23,16.95,10.96,32.23,27.74,34.79l6.54,1
		c0.27,0.89,0.56,1.76,0.79,2.66c0.48,1.84,0.88,3.71,1.21,5.59c0.17,0.93,0.27,1.87,0.4,2.81l-5.35,3.66
		c-14.02,9.6-18.37,28.66-9.9,43.38l2.98,5.19c-0.53,0.77-1.04,1.55-1.6,2.3c-1.23,1.65-2.52,3.24-3.87,4.79
		c-0.62,0.71-1.28,1.37-1.93,2.06l-5.64-1.73c-16.23-4.98-33.86,3.51-40.09,19.31l-2.09,5.29c-0.97,0.08-1.93,0.18-2.89,0.21
		c-2.05,0.08-4.1,0.08-6.15,0c-0.97-0.04-1.94-0.14-2.91-0.21l-2.09-5.29c-6.24-15.8-23.85-24.29-40.1-19.31l-5.65,1.73
		c-0.91-0.96-1.86-1.89-2.72-2.89c-0.65-0.76-1.32-1.51-1.94-2.3c-2.04-2.6-3.97-5.29-5.66-8.16l-15.78,9.32
		c4.66,7.89,10.43,15.03,17.15,21.21l3.87,3.56l16.11-4.94c7.16-2.18,14.93,1.54,17.68,8.52l6.14,15.54l5.23,0.78
		c4.55,0.68,9.17,1.02,13.73,1.02c4.59,0,9.22-0.34,13.77-1.02l5.23-0.78l6.13-15.53c2.75-6.97,10.5-10.72,17.67-8.52l16.09,4.93
		l3.87-3.56c6.73-6.19,12.5-13.34,17.16-21.23l2.71-4.6l-8.51-14.81C195.7,144.76,197.61,136.35,203.79,132.12z"/>
	<circle cx="125.32" cy="123.56" r="13.51"/>
</g>
</svg>
