<svg xmlns="http://www.w3.org/2000/svg" fill="currentColor" viewBox="0 0 100 100" preserveAspectRatio="xMidYMid meet">
<g id="IIS"><path d="M92.28,77.72H31.06L20.38,37.87l-8,31.5A4.19,4.19,0,0,0,16.4,74.6h9.77v3.12H16.4A7.31,7.31,0,0,1,9.32,68.6l11-43.07L33.45,74.6H88.21L75.86,28.51H25.11V25.39H78.25Z"/><rect x="31.48" y="38.79" width="3.12" height="3.12"/><rect x="63.15" y="63.77" width="3.12" height="3.12"/><rect x="75.64" y="63.77" width="3.12" height="3.12"/><path d="M70.39,45H45.64a4.68,4.68,0,1,1,0-9.36H70.39a4.68,4.68,0,0,1,3.72,7.53A4.63,4.63,0,0,1,70.39,45ZM45.64,38.79a1.56,1.56,0,1,0,0,3.12H70.39a1.56,1.56,0,0,0,1.51-2,1.55,1.55,0,0,0-1.51-1.16Z"/><path d="M73.74,57.52H36.49A4.68,4.68,0,0,1,32,54.05a4.68,4.68,0,0,1,4.52-5.89H73.74a4.68,4.68,0,1,1,0,9.36ZM36.49,51.28a1.56,1.56,0,0,0-1.5,2,1.56,1.56,0,0,0,1.5,1.16H73.74A1.55,1.55,0,0,0,75,53.79a1.53,1.53,0,0,0,.27-1.35,1.55,1.55,0,0,0-1.51-1.16Z"/><path d="M52.11,70H39.84a4.68,4.68,0,1,1,0-9.36H52.11a4.68,4.68,0,0,1,0,9.36ZM39.84,63.77a1.56,1.56,0,0,0-1.51,2,1.58,1.58,0,0,0,1.51,1.16H52.11a1.55,1.55,0,0,0,1.24-.61,1.57,1.57,0,0,0,.27-1.36,1.55,1.55,0,0,0-1.51-1.15Z"/><rect x="29.59" y="22.27" width="3.12" height="7.77"/><rect x="37.39" y="22.27" width="3.12" height="7.77"/><rect x="45.2" y="22.27" width="3.12" height="7.77"/><rect x="53" y="22.27" width="3.12" height="7.77"/><rect x="60.81" y="22.27" width="3.12" height="7.77"/><rect x="68.62" y="22.27" width="3.12" height="7.77"/></g>
</svg>