<?xml version="1.0" encoding="utf-8"?>
<!-- Generator: Adobe Illustrator 27.5.0, SVG Export Plug-In . SVG Version: 6.00 Build 0)  -->
<svg version="1.1" id="Layer_1" xmlns="http://www.w3.org/2000/svg" xmlns:xlink="http://www.w3.org/1999/xlink" x="0px" y="0px"
	 viewBox="0 0 250 250" style="enable-background:new 0 0 250 250;" fill="white" xml:space="preserve">
<g>
	<path d="M191.21,38.4v32.51c-1.59-1.89-3.06-3.86-4.8-5.61c-33.52-33.52-88.07-33.52-121.6,0c-16.81,16.81-25.75,39.17-25.16,62.95
		l18.32-0.46c-0.47-18.71,6.57-36.3,19.79-49.53c26.39-26.37,69.3-26.37,95.68,0c1.59,1.59,3.03,3.23,4.35,4.8h-31.25v18.33h62.99
		V38.4H191.21z"/>
	<path d="M193.24,127.79c-0.43,17.43-7.46,33.82-19.79,46.15c-26.38,26.38-69.3,26.38-95.68,0c-0.11-0.11-0.22-0.24-0.33-0.35h31.45
		v-18.33h-63v62.99h18.33v-31.97c0.2,0.21,0.38,0.42,0.59,0.63c16.76,16.76,38.78,25.14,60.8,25.14c22.01,0,44.04-8.38,60.8-25.14
		c15.68-15.67,24.61-36.5,25.16-58.65L193.24,127.79z"/>
</g>
</svg>
