<svg xmlns="http://www.w3.org/2000/svg" fill="currentColor" viewBox="0 0 100 100" preserveAspectRatio="xMidYMid meet">
<g id="settings"><path d="M38.33,87.35a7.57,7.57,0,0,1-7.56-7.56V42a15.11,15.11,0,0,1-.48-25.89l2.39-1.5V27.53l5.65,3.26L44,27.53V14.65l2.39,1.5A15.12,15.12,0,0,1,45.89,42V79.79A7.57,7.57,0,0,1,38.33,87.35ZM33.89,43.4V79.79a4.44,4.44,0,1,0,8.87,0V47.15c0-6.91,0-7.54,1.18-7.6A12,12,0,0,0,47.1,20.77v8.56L38.33,34.4l-8.77-5.07V20.77a12,12,0,0,0,8.77,20.17v3.13A15.1,15.1,0,0,1,33.89,43.4Z"/><path d="M67.25,87.35a7.57,7.57,0,0,1-7.56-7.56V64.3a28.33,28.33,0,0,0-.82-6.79L58,53.31,62,47.39H72.52l4,5.92-.86,4.23a28.5,28.5,0,0,0-.8,6.76V79.79A7.57,7.57,0,0,1,67.25,87.35ZM61.34,54l.59,2.93a31.27,31.27,0,0,1,.88,7.41V79.79a4.44,4.44,0,1,0,8.87,0V64.3a31.48,31.48,0,0,1,.87-7.38l.6-3-2.3-3.45H63.64Z"/><path d="M66,49H62.84V33.46a28.25,28.25,0,0,0-1.22-8.38l-.13-.41L63.85,15h6.8L73,24.67l-.13.41a28.45,28.45,0,0,0-1.21,8.38V44.27H68.53V33.46a32,32,0,0,1,1.23-8.88l-1.57-6.47H66.3l-1.57,6.47A31.39,31.39,0,0,1,66,33.46Z"/></g></svg>