<svg xmlns="http://www.w3.org/2000/svg" fill="currentColor" viewBox="0 0 100 100" preserveAspectRatio="xMidYMid meet"> <g id="karta_timu" data-name="karta timu"> <path d="M57.52,88H30.59a6.88,6.88,0,0,1-6.88-6.88v-4h3.12v4a3.76,3.76,0,0,0,3.76,3.76H56.23L74.05,67.05V20.89a3.76,3.76,0,0,0-3.76-3.76H30.59a3.76,3.76,0,0,0-3.76,3.76V70.82H23.71V20.89A6.88,6.88,0,0,1,30.59,14h39.7a6.89,6.89,0,0,1,6.88,6.88V68.34Z"/><path d="M58.44,86.43H55.31V73a6.89,6.89,0,0,1,6.88-6.88H75.61v3.12H62.19A3.75,3.75,0,0,0,58.44,73Z"/><rect x="31.05" y="23.97" width="8.37" height="3.12"/><rect x="45.04" y="23.97" width="10.79" height="3.12"/><rect x="59.04" y="23.97" width="9.25" height="3.12"/><rect x="31.05" y="33.34" width="9.41" height="3.12"/><rect x="45.04" y="33.34" width="9.52" height="3.12"/><rect x="59.04" y="33.34" width="7.27" height="3.12"/><rect x="31.05" y="42.71" width="10.79" height="3.12"/><rect x="45.04" y="42.71" width="8.39" height="3.12"/><rect x="59.04" y="42.71" width="10.79" height="3.12"/><rect x="31.05" y="52.07" width="8.75" height="3.12"/><rect x="45.04" y="52.07" width="10.79" height="3.12"/><rect x="59.04" y="52.07" width="9.73" height="3.12"/><rect x="45.04" y="61.44" width="7.82" height="3.12"/><rect x="31.05" y="61.44" width="10.26" height="3.12"/></g>
</svg>