<svg xmlns="http://www.w3.org/2000/svg" fill="currentColor" viewBox="0 0 100 100" preserveAspectRatio="xMidYMid meet">
<g id="plan"><path d="M74.67,28.14H41.46v3.13H74.67a8.59,8.59,0,0,1,0,17.17H64l3.7-3.7-2.2-2.21L58,50l7.47,7.47,2.2-2.21L64,51.56H74.67a11.71,11.71,0,0,0,0-23.42Z"/><path d="M34.59,38.14A8.44,8.44,0,1,1,43,29.71,8.44,8.44,0,0,1,34.59,38.14Zm0-13.74a5.31,5.31,0,1,0,5.31,5.31A5.31,5.31,0,0,0,34.59,24.4Z"/><path d="M41.21,62.92,39,65.13l3.7,3.7H25.79a8.59,8.59,0,0,1,0-17.18H40.21V48.53H25.79a11.71,11.71,0,0,0,0,23.42H42.7L39,75.65l2.21,2.21,7.46-7.47Z"/><path d="M47.08,58.43A8.43,8.43,0,1,1,55.51,50,8.44,8.44,0,0,1,47.08,58.43Zm0-13.74A5.31,5.31,0,1,0,52.39,50,5.31,5.31,0,0,0,47.08,44.69Z"/><path d="M59.57,78.73A8.44,8.44,0,1,1,68,70.29,8.45,8.45,0,0,1,59.57,78.73Zm0-13.75a5.31,5.31,0,1,0,5.31,5.31A5.32,5.32,0,0,0,59.57,65Z"/><rect x="66.56" y="68.73" width="19" height="3.12"/><polygon points="16.21 37.27 14.01 35.06 19.27 29.8 14.01 24.54 16.21 22.33 23.68 29.8 16.21 37.27"/></g>
</svg>