<?xml version="1.0" encoding="iso-8859-1"?>
<!-- Generator: Adobe Illustrator 27.5.0, SVG Export Plug-In . SVG Version: 6.00 Build 0)  -->
<svg version="1.1" xmlns="http://www.w3.org/2000/svg" xmlns:xlink="http://www.w3.org/1999/xlink" x="0px" y="0px"
	 viewBox="0 0 200 200" style="enable-background:new 0 0 200 200;" xml:space="preserve">
<g id="Layer_1" style="display:none;">
	<rect x="93.976" y="126.431" style="display:inline;" width="12.84" height="31.723"/>
	<rect x="93.976" y="164.901" style="display:inline;" width="12.84" height="11.392"/>
	<g style="display:inline;">
		<path d="M49.705,93.552c-15.487,0-28.086-12.6-28.086-28.086V43.442c0-15.487,12.6-28.086,28.086-28.086
			s28.086,12.6,28.086,28.086v22.024C77.791,80.953,65.191,93.552,49.705,93.552z M49.705,34.616c-4.867,0-8.826,3.959-8.826,8.826
			v22.024c0,4.867,3.959,8.826,8.826,8.826s8.826-3.959,8.826-8.826V43.442C58.531,38.575,54.572,34.616,49.705,34.616z"/>
		<polygon points="129.553,36.17 129.553,16.91 88.487,16.91 88.487,91.425 107.747,91.425 107.747,64.084 125.273,64.084 
			125.273,44.824 107.747,44.824 107.747,36.17 		"/>
		<polygon points="179.176,36.17 179.176,16.91 138.109,16.91 138.109,91.425 157.369,91.425 157.369,64.084 174.896,64.084 
			174.896,44.824 157.369,44.824 157.369,36.17 		"/>
	</g>
	<polygon style="display:inline;" points="57.313,135.938 52.774,140.477 60.451,148.155 2.452,148.155 2.452,154.575 
		60.451,154.575 52.774,162.252 57.313,166.791 72.741,151.365 	"/>
	<path style="display:inline;" d="M182.929,135.938l-4.539,4.539l7.677,7.678h-58v-40.991h-55.34v88.402h55.34v-40.991h57.999
		l-7.677,7.677l4.539,4.539l15.428-15.426L182.929,135.938z M115.227,182.726h-29.66v-62.722h29.66V182.726z"/>
</g>
<g id="Layer_2" style="display:none;">
	<polygon style="display:inline;" points="152.789,20.219 134.633,2.06 100.397,36.296 66.161,2.06 48.004,20.219 82.239,54.454 
		48.004,88.689 66.161,106.848 100.397,72.612 134.633,106.848 152.789,88.689 118.554,54.454 	"/>
	<path style="display:inline;" d="M184.052,119.072l-11.278,40.598l-11.277-40.598L150.22,159.67l-11.278-40.598l-11.277,40.598
		l-8.16-29.377v-23.129H81.287v42.766l-8.527-13.643l-11.277,18.044l-11.278-18.044l-11.277,18.044l-11.278-18.044l-11.277,18.044
		L7.82,140.642l-5.444,3.402l13.999,22.399L27.651,148.4l11.278,18.044L50.206,148.4l11.278,18.044L72.76,148.4l8.527,13.643v33.523
		h38.219v-41.285l8.16,29.376l11.277-40.598l11.278,40.598l11.277-40.598l11.277,40.598l11.278-40.598l8.184,29.464l6.186-1.718
		L184.052,119.072z M106.666,182.726H94.127v-62.722h12.539V182.726z"/>
</g>
<g id="Layer_3" style="display:none;">
	<polygon style="display:inline;" points="152.789,20.219 134.633,2.06 100.397,36.296 66.161,2.06 48.004,20.219 82.239,54.454 
		48.004,88.689 66.161,106.848 100.397,72.612 134.633,106.848 152.789,88.689 118.554,54.454 	"/>
	<path style="display:inline;" d="M170.5,111.797v11.752c-5.781-2.054-12.488-0.791-17.107,3.829c-3.891,3.89-10.225,3.892-14.116,0
		c-3.097-3.098-7.216-4.805-11.598-4.805c-4.381,0-8.5,1.706-11.598,4.805c-3.893,3.891-10.224,3.891-14.117,0
		c-6.393-6.395-16.799-6.395-23.194,0c-3.893,3.891-10.226,3.891-14.117,0c-3.097-3.098-7.216-4.805-11.598-4.805
		c-0.802,0-1.591,0.076-2.37,0.189c-3.002-10.131-12.381-17.548-23.474-17.548c-13.504,0-24.49,10.986-24.49,24.49
		c0,12.368,9.225,22.597,21.15,24.235v17.07c0,12.206,9.93,22.136,22.136,22.136h108.777c12.205,0,22.135-9.93,22.135-22.136
		v-59.212H170.5z M21.983,129.704c0-2.884,2.346-5.23,5.23-5.23s5.231,2.346,5.231,5.23c0,2.884-2.347,5.23-5.231,5.23
		S21.983,132.588,21.983,129.704z M154.786,186.724H46.008c-8.666,0-15.716-7.05-15.716-15.716v-17.03
		c12.053-1.523,21.41-11.816,21.41-24.274c0-0.194-0.025-0.382-0.029-0.575c0.457-0.063,0.913-0.135,1.382-0.135
		c2.667,0,5.173,1.039,7.058,2.924c6.395,6.395,16.8,6.397,23.195,0c1.885-1.885,4.392-2.924,7.057-2.924
		c2.667,0,5.173,1.039,7.058,2.924c3.197,3.197,7.397,4.796,11.598,4.796c4.201,0,8.4-1.599,11.598-4.796
		c1.885-1.885,4.392-2.924,7.058-2.924c2.667,0,5.173,1.039,7.058,2.924c6.394,6.396,16.8,6.398,23.194,0
		c3.412-3.41,8.695-3.83,12.568-1.264v40.356C170.5,179.674,163.451,186.724,154.786,186.724z"/>
</g>
<g id="Layer_4" style="display:none;">
	<polygon style="display:inline;" points="152.789,20.219 134.633,2.06 100.397,36.296 66.161,2.06 48.004,20.219 82.239,54.454 
		48.004,88.689 66.161,106.848 100.397,72.612 134.633,106.848 152.789,88.689 118.554,54.454 	"/>
	<rect x="123.22" y="147.826" style="display:inline;" width="55.049" height="12.84"/>
	<polygon style="display:inline;" points="114.601,171.943 105.523,162.865 114.139,154.246 105.523,145.63 114.601,136.549 
		132.3,154.246 	"/>
	<polygon style="display:inline;" points="186.887,171.943 169.188,154.246 186.887,136.549 195.965,145.63 187.349,154.246 
		195.965,162.865 	"/>
	
		<rect x="144.325" y="126.722" transform="matrix(0.866 -0.5 0.5 0.866 -56.9278 96.0385)" style="display:inline;" width="12.838" height="55.05"/>
	<polygon style="display:inline;" points="141.521,138.272 117.347,131.795 120.67,119.392 132.442,122.546 135.596,110.775 
		147.997,114.098 	"/>
	<polygon style="display:inline;" points="165.89,197.719 153.489,194.394 159.968,170.222 184.141,176.697 180.818,189.1 
		169.046,185.946 	"/>
	
		<rect x="123.219" y="147.827" transform="matrix(0.5001 -0.866 0.866 0.5001 -58.2131 207.6569)" style="display:inline;" width="55.05" height="12.838"/>
	<polygon style="display:inline;" points="135.596,197.718 132.442,185.947 120.67,189.1 117.347,176.697 141.521,170.221 
		147.997,194.395 	"/>
	<polygon style="display:inline;" points="159.968,138.272 153.489,114.099 165.89,110.774 169.046,122.546 180.818,119.392 
		184.141,131.795 	"/>
	<path style="display:inline;" d="M72.481,138.937c-4.38,0-8.499-1.706-11.597-4.805c-3.891-3.892-10.226-3.89-14.117,0
		c-3.097,3.098-7.216,4.805-11.599,4.805c-4.38,0-8.499-1.706-11.597-4.805c-3.887-3.889-10.221-3.891-14.117,0l-4.539-4.539
		c6.397-6.396,16.802-6.392,23.195,0c1.885,1.885,4.393,2.924,7.057,2.924c2.667,0,5.174-1.039,7.059-2.924
		c6.395-6.393,16.8-6.397,23.195,0c3.893,3.892,10.228,3.89,14.117,0c6.397-6.396,16.802-6.392,23.195,0l-4.539,4.539
		c-3.889-3.889-10.224-3.891-14.117,0C80.982,137.23,76.863,138.937,72.481,138.937z"/>
	<path style="display:inline;" d="M72.481,161.32c-4.38,0-8.499-1.706-11.597-4.805c-3.895-3.894-10.23-3.888-14.117,0
		c-3.097,3.098-7.216,4.805-11.599,4.805c-4.38,0-8.499-1.706-11.597-4.805c-3.893-3.894-10.228-3.888-14.117,0l-4.539-4.539
		c6.397-6.396,16.802-6.392,23.195,0c1.885,1.885,4.393,2.924,7.057,2.924c2.667,0,5.174-1.039,7.059-2.924
		c6.395-6.393,16.8-6.397,23.195,0c1.885,1.885,4.393,2.924,7.057,2.924c2.667,0,5.174-1.039,7.059-2.924
		c6.393-6.393,16.798-6.397,23.195,0l-4.539,4.539c-3.889-3.889-10.224-3.892-14.117,0C80.982,159.614,76.863,161.32,72.481,161.32z
		"/>
	<path style="display:inline;" d="M72.481,183.703c-4.38,0-8.499-1.706-11.597-4.805c-3.895-3.894-10.23-3.888-14.117,0
		c-3.097,3.098-7.216,4.805-11.599,4.805c-4.38,0-8.499-1.706-11.597-4.805c-3.893-3.894-10.228-3.888-14.117,0l-4.539-4.539
		c6.397-6.395,16.802-6.393,23.195,0c1.885,1.885,4.393,2.924,7.057,2.924c2.667,0,5.174-1.039,7.059-2.924
		c6.395-6.394,16.8-6.396,23.195,0c1.885,1.885,4.393,2.924,7.057,2.924c2.667,0,5.174-1.039,7.059-2.924
		c6.393-6.394,16.798-6.396,23.195,0l-4.539,4.539c-3.889-3.888-10.224-3.892-14.117,0
		C80.982,181.997,76.863,183.703,72.481,183.703z"/>
</g>
<g id="Layer_5" style="display:none;">
	<polygon style="display:inline;" points="152.789,20.219 134.633,2.06 100.397,36.296 66.161,2.06 48.004,20.219 82.239,54.454 
		48.004,88.689 66.161,106.848 100.397,72.612 134.633,106.848 152.789,88.689 118.554,54.454 	"/>
	<path style="display:inline;" d="M158.15,170.487c-9.964,0-18.071-8.107-18.071-18.071c0-9.963,8.107-18.07,18.071-18.07
		c9.962,0,18.069,8.107,18.069,18.07C176.218,162.381,168.112,170.487,158.15,170.487z M158.15,140.767
		c-6.424,0-11.651,5.226-11.651,11.65s5.227,11.651,11.651,11.651s11.649-5.227,11.649-11.651S164.574,140.767,158.15,140.767z"/>
	<path style="display:inline;" d="M158.15,188.319l-0.132-6.42h0.132c6.353,0,12.401-1.987,17.492-5.748l3.816,5.164
		C173.253,185.897,165.886,188.319,158.15,188.319z M147.629,188.319h-20.777v-6.42h20.777V188.319z M116.463,188.319H95.686v-6.42
		h20.777V188.319z M85.3,188.319H64.523v-6.42H85.3V188.319z M54.134,188.319H42.671c-3.429,0-6.823-0.484-10.088-1.437l1.801-6.163
		c2.679,0.783,5.467,1.18,8.286,1.18h11.463V188.319z M22.322,181.999c-6.278-4.327-11.103-10.663-13.588-17.842l6.069-2.098
		c2.038,5.893,6.002,11.098,11.164,14.655L22.322,181.999z M187.414,173.217l-5.229-3.722c3.563-5.007,5.446-10.912,5.446-17.078
		l-0.004-0.534l6.42-0.071l0.004,0.605C194.051,159.924,191.756,167.117,187.414,173.217z M6.774,152.96l-0.004-0.543
		c0.002-7.535,2.311-14.748,6.679-20.858l5.225,3.732c-3.586,5.016-5.482,10.938-5.484,17.126l0.004,0.463L6.774,152.96z
		 M185.999,142.718c-2.05-5.89-6.025-11.087-11.193-14.632l3.632-5.294c6.288,4.314,11.126,10.641,13.626,17.815L185.999,142.718z
		 M25.225,128.649l-3.804-5.172c6.194-4.554,13.542-6.961,21.25-6.961l0.067,6.42h-0.067
		C36.341,122.935,30.31,124.911,25.225,128.649z M166.379,124.097c-2.658-0.771-5.425-1.162-8.219-1.162c-0.002,0-0.006,0-0.008,0
		H146.62v-6.42h11.53c0.004,0,0.008,0,0.013,0c3.398,0,6.765,0.476,10.006,1.417L166.379,124.097z M136.233,122.935h-20.777v-6.42
		h20.777V122.935z M105.068,122.935H84.29v-6.42h20.777V122.935z M73.902,122.935H53.127v-6.42h20.775V122.935z"/>
	<path style="display:inline;" d="M66.211,127.927c-12.833,0-23.373,9.93-24.388,22.507l-11.018-11.018l-4.539,4.539l8.462,8.462
		l-8.462,8.463l4.539,4.539L41.823,154.4c1.016,12.578,11.555,22.508,24.388,22.508c13.505,0,24.491-10.986,24.491-24.491
		C90.702,138.913,79.716,127.927,66.211,127.927z M66.211,157.647c-2.884,0-5.229-2.347-5.229-5.231c0-2.884,2.345-5.23,5.229-5.23
		c2.884,0,5.231,2.346,5.231,5.23C71.442,155.3,69.095,157.647,66.211,157.647z"/>
</g>
<g id="Layer_6" style="display:none;">
	<polygon style="display:inline;" points="152.789,20.219 134.633,2.06 100.397,36.296 66.161,2.06 48.004,20.219 82.239,54.454 
		48.004,88.689 66.161,106.848 100.397,72.612 134.633,106.848 152.789,88.689 118.554,54.454 	"/>
	<path style="display:inline;" d="M42.659,170.487c-9.964,0-18.071-8.107-18.071-18.071c0-9.963,8.107-18.07,18.071-18.07
		c9.962,0,18.069,8.107,18.069,18.07C60.727,162.381,52.621,170.487,42.659,170.487z M42.659,140.767
		c-6.424,0-11.651,5.226-11.651,11.65s5.227,11.651,11.651,11.651s11.649-5.227,11.649-11.651S49.083,140.767,42.659,140.767z"/>
	<path style="display:inline;" d="M42.646,188.319c-3.425,0-6.815-0.483-10.075-1.436l1.801-6.163
		c2.675,0.783,5.459,1.179,8.276,1.179c0.002,0,0.006,0,0.008,0h11.465v6.42H42.659C42.654,188.319,42.65,188.319,42.646,188.319z
		 M158.135,188.319l-0.13-6.42h0.13c6.353,0,12.401-1.987,17.492-5.748l3.816,5.164
		C173.238,185.897,165.872,188.319,158.135,188.319z M147.617,188.319H126.84v-6.42h20.777V188.319z M116.451,188.319H95.676v-6.42
		h20.775V188.319z M85.287,188.319H64.51v-6.42h20.777V188.319z M22.314,182.001c-6.282-4.327-11.108-10.663-13.592-17.843
		l6.069-2.098c2.038,5.894,6.004,11.098,11.164,14.654L22.314,182.001z M187.399,173.218l-5.229-3.722
		c3.561-5.004,5.444-10.91,5.446-17.08l-0.004-0.532l6.42-0.071l0.004,0.604C194.034,159.928,191.74,167.122,187.399,173.218z
		 M6.761,152.961l-0.004-0.544c0-7.535,2.309-14.747,6.677-20.859l5.225,3.732c-3.586,5.017-5.482,10.938-5.482,17.126l0.004,0.465
		L6.761,152.961z M185.984,142.719c-2.05-5.89-6.025-11.087-11.195-14.632l3.632-5.294c6.29,4.313,11.128,10.64,13.628,17.815
		L185.984,142.719z M25.213,128.649l-3.804-5.172c6.192-4.554,13.54-6.961,21.25-6.961l0.065,6.42h-0.065
		C36.326,122.935,30.295,124.911,25.213,128.649z M166.365,124.098c-2.66-0.771-5.429-1.163-8.23-1.163h-11.528v-6.42h11.528
		c3.404,0,6.775,0.476,10.019,1.418L166.365,124.098z M136.219,122.935h-20.777v-6.42h20.777V122.935z M105.053,122.935H84.278
		v-6.42h20.775V122.935z M73.889,122.935H53.112v-6.42h20.777V122.935z"/>
	<path style="display:inline;" d="M134.595,127.927c-12.79,0-23.306,9.862-24.382,22.379l-10.891-10.891l-4.539,4.539l8.462,8.462
		l-8.462,8.463l4.539,4.539l10.891-10.891c1.076,12.518,11.592,22.38,24.382,22.38c13.505,0,24.491-10.986,24.491-24.491
		C159.086,138.913,148.1,127.927,134.595,127.927z M134.595,157.647c-2.884,0-5.229-2.347-5.229-5.231
		c0-2.884,2.345-5.23,5.229-5.23s5.231,2.346,5.231,5.23C139.826,155.3,137.479,157.647,134.595,157.647z"/>
</g>
<g id="Layer_7" style="display:none;">
	<polygon style="display:inline;" points="152.789,20.342 134.633,2.183 100.397,36.419 66.161,2.183 48.004,20.342 82.239,54.577 
		48.004,88.812 66.161,106.971 100.397,72.735 134.633,106.971 152.789,88.812 118.554,54.577 	"/>
	<path style="display:inline;" d="M168.7,177.006h-6.42c0-34.117-27.756-61.873-61.873-61.873v-6.42
		C138.064,108.713,168.7,139.349,168.7,177.006z"/>
	<path style="display:inline;" d="M152.429,177.006h-6.42c0-25.145-20.457-45.602-45.602-45.602v-6.42
		C129.092,124.983,152.429,148.32,152.429,177.006z"/>
	<path style="display:inline;" d="M135.345,177.006h-6.42c0-15.725-12.793-28.518-28.518-28.518v-6.42
		C119.672,142.068,135.345,157.74,135.345,177.006z"/>
	<path style="display:inline;" d="M100.407,159.872c-5.889,0-11.081,2.973-14.165,7.498c-4.496-0.029-8.847-1.356-12.591-3.851
		c-17.758-11.841-40.705-11.839-58.461,0c-3.785,2.523-8.19,3.857-12.739,3.857v19.26c8.364,0,16.463-2.452,23.422-7.092
		c11.268-7.51,25.826-7.513,37.095,0.001c6.916,4.609,14.959,7.055,23.266,7.085c3.083,4.531,8.28,7.508,14.173,7.508
		c9.462,0,17.133-7.671,17.133-17.133C117.54,167.543,109.87,159.872,100.407,159.872z"/>
</g>
<g id="Layer_8" style="display:none;">
	<rect x="126.628" y="46.1" style="display:inline;" width="25.68" height="74.614"/>
	<rect x="126.628" y="137.033" style="display:inline;" width="25.68" height="23.942"/>
	<path style="display:inline;" d="M71.356,132.85V46.1h-19.26v86.751c-4.528,3.083-7.503,8.278-7.503,14.168
		c0,9.462,7.671,17.133,17.133,17.133s17.133-7.671,17.133-17.133C78.859,141.128,75.884,135.933,71.356,132.85z"/>
	<rect x="79.246" y="123.077" style="display:inline;" width="16.191" height="6.42"/>
	<rect x="85.666" y="110.237" style="display:inline;" width="9.771" height="6.42"/>
	<rect x="85.666" y="97.397" style="display:inline;" width="9.771" height="6.42"/>
	<rect x="85.666" y="84.557" style="display:inline;" width="9.771" height="6.42"/>
	<rect x="85.666" y="71.717" style="display:inline;" width="9.771" height="6.42"/>
	<rect x="79.246" y="58.877" style="display:inline;" width="16.191" height="6.42"/>
	<rect x="85.666" y="46.037" style="display:inline;" width="9.771" height="6.42"/>
	<rect x="85.666" y="33.197" style="display:inline;" width="9.771" height="6.42"/>
	<rect x="85.666" y="20.357" style="display:inline;" width="9.771" height="6.42"/>
	<path style="display:inline;" d="M166.007,192.372H34.787c-14.745,0-26.741-11.996-26.741-26.741V34.411
		c0-14.745,11.996-26.742,26.741-26.742h131.22c14.745,0,26.741,11.997,26.741,26.742v131.22
		C192.748,180.376,180.752,192.372,166.007,192.372z M34.787,14.09c-11.205,0-20.321,9.116-20.321,20.322v131.22
		c0,11.205,9.116,20.321,20.321,20.321h131.22c11.205,0,20.321-9.116,20.321-20.321V34.411c0-11.206-9.116-20.322-20.321-20.322
		H34.787z"/>
</g>
<g id="Layer_9" style="display:none;">
	<path style="display:inline;" d="M83.172,23.975c-4.789,0-9.225,1.515-12.878,4.075c-3.653-2.56-8.088-4.075-12.878-4.075H34.909
		v55.075h19.26V43.235h3.248c1.791,0,3.248,1.457,3.248,3.248v32.567h19.26V46.482c0-1.791,1.458-3.248,3.249-3.248
		c1.791,0,3.248,1.457,3.248,3.248v32.567h19.26V46.482C105.681,34.072,95.584,23.975,83.172,23.975z"/>
	<path style="display:inline;" d="M148.309,40.407h6.504v-6.42h-6.504c-5.957,0-10.804,4.847-10.804,10.806v27.976h6.42V55.396
		h8.748v-6.42h-8.748v-4.184C143.925,42.375,145.891,40.407,148.309,40.407z"/>
	<path style="display:inline;" d="M152.413,125.747h15.064v-6.42h-15.064c-5.957,0-10.804,4.847-10.804,10.804v30.116h6.42v-19.512
		h17.308v-6.42h-17.308v-4.184C148.028,127.713,149.995,125.747,152.413,125.747z"/>
	<path style="display:inline;" d="M169.37,64.747c-2.418,0-4.386-1.968-4.386-4.386v-4.84h8.749v-6.42h-8.749V34.526h-6.42v25.836
		c0,5.958,4.847,10.806,10.806,10.806h6.504v-6.42H169.37z"/>
	<path style="display:inline;" d="M79.699,181.713c-23.441,0-42.512-19.071-42.512-42.512s19.071-42.511,42.512-42.511
		c7.78,0,15.396,2.124,22.021,6.142l-9.989,16.468c-3.612-2.191-7.773-3.35-12.031-3.35c-12.821,0-23.252,10.43-23.252,23.251
		c0,12.821,10.43,23.252,23.252,23.252c4.257,0,8.418-1.159,12.033-3.35l9.985,16.468C95.092,179.59,87.477,181.713,79.699,181.713z
		"/>
	<path style="display:inline;" d="M31.047,117.397c-6.849,0-12.422-5.573-12.422-12.422c0-6.849,5.573-12.422,12.422-12.422
		s12.422,5.573,12.422,12.422C43.469,111.824,37.897,117.397,31.047,117.397z M31.047,98.973c-3.309,0-6.002,2.693-6.002,6.002
		c0,3.309,2.693,6.002,6.002,6.002s6.002-2.693,6.002-6.002C37.049,101.666,34.356,98.973,31.047,98.973z"/>
	<path style="display:inline;" d="M133.323,127.54c-3.13,0-5.676-2.546-5.676-5.676s2.546-5.676,5.676-5.676
		c3.13,0,5.676,2.546,5.676,5.676S136.453,127.54,133.323,127.54z M133.323,118.328c-1.95,0-3.536,1.586-3.536,3.536
		s1.586,3.536,3.536,3.536c1.95,0,3.536-1.586,3.536-3.536S135.273,118.328,133.323,118.328z"/>
</g>
<g id="Layer_10" style="display:none;">
	<path style="display:inline;" d="M57.473,41.756c-2.483,0-4.727,0.969-6.439,2.515c-1.712-1.546-3.956-2.515-6.439-2.515h-9.649
		v25.932h6.42V48.176h3.229c1.781,0,3.229,1.448,3.229,3.229v16.283h6.42V51.405c0-1.781,1.448-3.229,3.229-3.229
		c1.781,0,3.229,1.448,3.229,3.229v16.283h6.42V51.405C67.122,46.084,62.794,41.756,57.473,41.756z"/>
	<path style="display:inline;" d="M121.205,28.237h13.007V8.977h-13.007c-13.686,0-24.821,11.135-24.821,24.821v55.951h19.26V58.215
		h14.288v-19.26h-14.288v-5.157C115.644,30.731,118.139,28.237,121.205,28.237z"/>
	<path style="display:inline;" d="M135.328,126.651h30.127v-19.26h-30.127c-13.684,0-24.819,11.135-24.819,24.82v60.231h19.26
		v-35.814h31.406v-19.26h-31.406v-5.158C129.769,129.145,132.263,126.651,135.328,126.651z"/>
	<path style="display:inline;" d="M163.326,70.498c-3.066,0-5.561-2.494-5.561-5.56v-6.471h14.288v-19.26h-14.288V13.265h-19.26
		v51.672c0,13.685,11.135,24.82,24.821,24.82h13.007v-19.26H163.326z"/>
	<path style="display:inline;" d="M52.37,166.913c-10.836,0-19.651-8.815-19.651-19.651c0-10.835,8.815-19.65,19.651-19.65
		c3.599,0,7.118,0.981,10.178,2.839l-3.331,5.488c-2.056-1.248-4.422-1.907-6.846-1.907c-7.296,0-13.231,5.935-13.231,13.23
		c0,7.296,5.935,13.231,13.231,13.231c2.422,0,4.79-0.659,6.846-1.908l3.331,5.49C59.484,165.931,55.967,166.913,52.37,166.913z"/>
	<path style="display:inline;" d="M28.044,135.825c-3.131,0-5.676-2.546-5.676-5.676c0-3.13,2.545-5.676,5.676-5.676
		s5.676,2.546,5.676,5.676C33.72,133.279,31.175,135.825,28.044,135.825z M28.044,126.613c-1.95,0-3.536,1.586-3.536,3.536
		s1.586,3.536,3.536,3.536s3.536-1.586,3.536-3.536S29.994,126.613,28.044,126.613z"/>
	<path style="display:inline;" d="M97.149,128.097c-6.851,0-12.422-5.573-12.422-12.422s5.572-12.422,12.422-12.422
		c6.851,0,12.422,5.573,12.422,12.422S104,128.097,97.149,128.097z M97.149,109.673c-3.31,0-6.002,2.693-6.002,6.002
		s2.692,6.002,6.002,6.002c3.31,0,6.002-2.693,6.002-6.002S100.459,109.673,97.149,109.673z"/>
</g>
<g id="Layer_11" style="display:none;">
	<polygon style="display:inline;" points="195.995,145.439 186.916,136.359 175.638,147.636 161.893,147.636 168.765,135.733 
		184.17,131.605 180.847,119.202 169.075,122.356 165.922,110.585 153.521,113.908 157.648,129.312 150.773,141.218 143.9,129.313 
		148.028,113.909 135.627,110.584 132.472,122.356 120.7,119.202 117.377,131.605 132.782,135.733 139.654,147.636 125.909,147.636 
		114.631,136.359 105.552,145.439 114.169,154.056 105.552,162.674 114.631,171.753 125.909,160.476 139.655,160.476 
		132.782,172.38 117.377,176.508 120.7,188.911 132.472,185.757 135.627,197.529 148.028,194.204 143.9,178.8 150.773,166.895 
		157.648,178.801 153.521,194.205 165.922,197.528 169.075,185.757 180.847,188.911 184.17,176.508 168.765,172.38 161.892,160.476 
		175.638,160.476 186.916,171.753 195.995,162.674 187.378,154.056 	"/>
	<path style="display:inline;" d="M72.512,138.747c-4.382,0-8.501-1.706-11.599-4.805c-3.889-3.889-10.224-3.891-14.117,0
		c-6.393,6.396-16.798,6.395-23.195,0.001c-3.891-3.893-10.224-3.892-14.115-0.001l-4.539-4.539c6.395-6.395,16.798-6.395,23.193,0
		c3.891,3.891,10.226,3.891,14.117,0c6.397-6.396,16.802-6.392,23.195,0c1.885,1.885,4.393,2.924,7.059,2.924
		c2.665,0,5.172-1.039,7.057-2.924c6.395-6.393,16.8-6.397,23.195,0l-4.539,4.539c-3.893-3.892-10.228-3.89-14.117,0
		C81.011,137.04,76.892,138.747,72.512,138.747z"/>
	<path style="display:inline;" d="M72.512,161.13c-4.382,0-8.501-1.706-11.599-4.805c-3.895-3.894-10.23-3.888-14.117,0
		c-3.097,3.098-7.216,4.805-11.597,4.805s-8.499-1.706-11.599-4.805c-3.891-3.891-10.224-3.891-14.115,0l-4.539-4.539
		c6.395-6.395,16.798-6.395,23.193,0c1.887,1.885,4.393,2.924,7.059,2.924c2.665,0,5.172-1.039,7.057-2.924
		c6.393-6.393,16.798-6.397,23.195,0c1.885,1.885,4.393,2.924,7.059,2.924c2.665,0,5.172-1.039,7.057-2.924
		c6.395-6.393,16.8-6.397,23.195,0l-4.539,4.539c-3.893-3.892-10.228-3.89-14.117,0C81.011,159.424,76.892,161.13,72.512,161.13z"/>
	<path style="display:inline;" d="M72.51,183.506c-4.198,0-8.399-1.599-11.597-4.796c-1.885-1.885-4.393-2.924-7.059-2.924
		c-2.665,0-5.172,1.039-7.057,2.924c-6.393,6.396-16.798,6.395-23.195,0.001c-1.885-1.886-4.393-2.925-7.057-2.925
		s-5.172,1.039-7.057,2.924l-4.539-4.539c3.097-3.098,7.216-4.805,11.597-4.805s8.499,1.706,11.597,4.805
		c3.891,3.889,10.226,3.891,14.117,0c3.097-3.098,7.216-4.805,11.597-4.805c4.382,0,8.501,1.706,11.599,4.805
		c1.885,1.885,4.393,2.924,7.059,2.924c2.665,0,5.172-1.039,7.057-2.924c3.097-3.098,7.216-4.805,11.599-4.805
		c4.38,0,8.499,1.706,11.597,4.805l-4.539,4.539c-1.885-1.885-4.393-2.924-7.057-2.924c-2.667,0-5.174,1.039-7.059,2.924
		C80.911,181.907,76.71,183.506,72.51,183.506z"/>
	<g style="display:inline;">
		<rect x="87.559" y="72.324" width="25.68" height="23.235"/>
		<path d="M100.495,1.953c-29.642,0-53.757,24.116-53.757,53.758s24.115,53.758,53.757,53.758s53.757-24.116,53.757-53.758
			S130.137,1.953,100.495,1.953z M100.495,103.049c-26.102,0-47.337-21.236-47.337-47.338c0-21.617,14.57-39.883,34.401-45.526
			v52.723h25.68V10.13c19.929,5.58,34.593,23.894,34.593,45.581C147.832,81.813,126.597,103.049,100.495,103.049z"/>
	</g>
</g>
<g id="Layer_12" style="display:none;">
	<path style="display:inline;" d="M158.135,176.823c-13.502,0-24.489-10.986-24.489-24.49s10.986-24.49,24.489-24.49
		c13.505,0,24.491,10.986,24.491,24.49S171.64,176.823,158.135,176.823z M158.135,147.103c-2.884,0-5.229,2.346-5.229,5.23
		c0,2.884,2.345,5.23,5.229,5.23c2.884,0,5.231-2.346,5.231-5.23C163.366,149.449,161.019,147.103,158.135,147.103z"/>
	<path style="display:inline;" d="M42.659,176.823c-13.505,0-24.491-10.986-24.491-24.49s10.986-24.49,24.491-24.49
		c13.502,0,24.489,10.986,24.489,24.49S56.161,176.823,42.659,176.823z M42.659,147.103c-2.884,0-5.231,2.346-5.231,5.23
		c0,2.884,2.347,5.23,5.231,5.23c2.884,0,5.229-2.346,5.229-5.23C47.887,149.449,45.543,147.103,42.659,147.103z"/>
	<path style="display:inline;" d="M42.646,188.234c-3.425,0-6.815-0.483-10.075-1.436l1.801-6.163
		c2.675,0.783,5.459,1.179,8.276,1.179c0.002,0,0.006,0,0.008,0h11.465v6.42H42.659C42.654,188.234,42.65,188.234,42.646,188.234z
		 M158.135,188.234l-0.13-6.42h0.13c6.353,0,12.401-1.987,17.492-5.748l3.816,5.164
		C173.238,185.812,165.872,188.234,158.135,188.234z M147.617,188.234H126.84v-6.42h20.777V188.234z M116.451,188.234H95.676v-6.42
		h20.775V188.234z M85.287,188.234H64.51v-6.42h20.777V188.234z M22.314,181.916c-6.28-4.326-11.108-10.662-13.592-17.842
		l6.069-2.098c2.038,5.894,6.004,11.098,11.164,14.653L22.314,181.916z M187.399,173.133l-5.229-3.722
		c3.561-5.004,5.444-10.91,5.446-17.079l-0.004-0.533l6.42-0.071l0.004,0.605C194.034,159.845,191.74,167.037,187.399,173.133z
		 M6.761,152.876l-0.004-0.543c0-7.535,2.309-14.747,6.677-20.859l5.225,3.732c-3.586,5.017-5.482,10.938-5.482,17.126l0.004,0.464
		L6.761,152.876z M185.984,142.635c-2.05-5.89-6.025-11.087-11.195-14.633l3.632-5.294c6.29,4.314,11.128,10.643,13.628,17.816
		L185.984,142.635z M25.213,128.565l-3.804-5.172c6.192-4.555,13.54-6.962,21.25-6.962l0.065,6.42h-0.065
		C36.329,122.85,30.295,124.826,25.213,128.565z M166.365,124.013c-2.66-0.771-5.429-1.163-8.23-1.163h-11.528v-6.42h11.528
		c3.404,0,6.775,0.476,10.019,1.418L166.365,124.013z M136.219,122.85h-20.777v-6.42h20.777V122.85z M105.053,122.85H84.278v-6.42
		h20.775V122.85z M73.889,122.85H53.112v-6.42h20.777V122.85z"/>
	<g style="display:inline;">
		<rect x="87.463" y="72.324" width="25.68" height="23.235"/>
		<path d="M100.397,1.953c-29.642,0-53.757,24.116-53.757,53.758s24.115,53.758,53.757,53.758s53.757-24.116,53.757-53.758
			S130.039,1.953,100.397,1.953z M100.397,103.049c-26.102,0-47.337-21.236-47.337-47.338c0-21.618,14.571-39.884,34.403-45.527
			v52.723h25.68V10.13c19.928,5.581,34.591,23.895,34.591,45.581C147.734,81.813,126.499,103.049,100.397,103.049z"/>
	</g>
</g>
<g id="Layer_13" style="display:none;">
	<path style="display:inline;" d="M156.27,145.457V7.284h-19.26v138.173c-4.528,3.083-7.503,8.278-7.503,14.169
		c0,9.462,7.671,17.133,17.133,17.133c9.462,0,17.133-7.671,17.133-17.133C163.773,153.735,160.798,148.54,156.27,145.457z"/>
	<rect x="164.161" y="135.683" style="display:inline;" width="16.19" height="6.42"/>
	<rect x="170.581" y="122.843" style="display:inline;" width="9.77" height="6.42"/>
	<rect x="170.581" y="110.003" style="display:inline;" width="9.77" height="6.42"/>
	<rect x="170.581" y="97.163" style="display:inline;" width="9.77" height="6.42"/>
	<rect x="170.581" y="84.323" style="display:inline;" width="9.77" height="6.42"/>
	<rect x="164.161" y="71.483" style="display:inline;" width="16.19" height="6.42"/>
	<rect x="164.161" y="7.283" style="display:inline;" width="16.19" height="6.42"/>
	<rect x="170.581" y="58.643" style="display:inline;" width="9.77" height="6.42"/>
	<rect x="170.581" y="45.803" style="display:inline;" width="9.77" height="6.42"/>
	<rect x="170.581" y="32.963" style="display:inline;" width="9.77" height="6.42"/>
	<rect x="170.581" y="20.123" style="display:inline;" width="9.77" height="6.42"/>
	<g style="display:inline;">
		<rect x="59.653" y="116.635" width="25.68" height="23.234"/>
		<path d="M72.587,46.263c-29.641,0-53.757,24.116-53.757,53.758c0,29.641,24.116,53.758,53.757,53.758
			c29.642,0,53.758-24.117,53.758-53.758C126.345,70.379,102.229,46.263,72.587,46.263z M72.587,147.359
			c-26.102,0-47.337-21.235-47.337-47.338c0-21.618,14.571-39.884,34.403-45.527v52.723h25.68V54.44
			c19.928,5.581,34.592,23.895,34.592,45.581C119.925,126.124,98.689,147.359,72.587,147.359z"/>
	</g>
</g>
<g id="Layer_14" style="display:none;">
	<path style="display:inline;" d="M114.793,123.52v-13.532h-6.142c-0.518-3.469-1.408-6.812-2.661-9.983l5.307-3.064l-6.767-11.719
		l-5.315,3.069c-2.155-2.702-4.603-5.15-7.305-7.305l3.069-5.316l-11.72-6.766l-3.064,5.307c-3.171-1.253-6.514-2.143-9.984-2.661
		v-6.143H56.68v6.143c-3.469,0.518-6.812,1.408-9.983,2.661l-3.064-5.307L31.913,75.67l3.069,5.316
		c-2.702,2.155-5.151,4.603-7.305,7.305l-5.316-3.069l-6.766,11.719l5.307,3.064c-1.253,3.171-2.143,6.514-2.661,9.983h-6.143
		v13.532h6.143c0.518,3.47,1.408,6.813,2.661,9.984l-5.307,3.065l6.766,11.718l5.315-3.069c2.155,2.702,4.604,5.152,7.306,7.306
		l-3.069,5.316l11.719,6.765l3.064-5.306c3.171,1.253,6.515,2.144,9.984,2.661v6.143h13.532v-6.143
		c3.469-0.518,6.813-1.408,9.984-2.661l3.064,5.306l11.72-6.765l-3.069-5.316c2.702-2.155,5.151-4.604,7.306-7.306l5.314,3.069
		l6.767-11.718l-5.307-3.065c1.253-3.171,2.143-6.515,2.661-9.984H114.793z M63.446,156.097c-21.693,0-39.341-17.649-39.341-39.342
		c0-21.693,17.649-39.341,39.341-39.341c21.694,0,39.342,17.649,39.342,39.341C102.788,138.448,85.14,156.097,63.446,156.097z"/>
	<path style="display:inline;" d="M178.22,150.154l6.088-0.885l-1.946-13.392l-6.088,0.885c-1.211-3.134-2.932-6.025-5.11-8.583
		l3.679-4.931l-10.845-8.093l-3.679,4.93c-3.072-1.36-6.334-2.188-9.683-2.457l-0.885-6.087l-13.391,1.946l0.885,6.087
		c-3.134,1.211-6.026,2.933-8.585,5.111l-4.929-3.679l-8.093,10.843l4.929,3.68c-1.359,3.072-2.187,6.333-2.455,9.682l-6.087,0.885
		l1.946,13.392l6.087-0.885c1.211,3.134,2.932,6.026,5.11,8.584l-3.679,4.93l10.845,8.092l3.669-4.917
		c3.076,1.362,6.343,2.206,9.696,2.474l0.881,6.059l13.392-1.948l-0.885-6.086c3.134-1.211,6.026-2.933,8.584-5.11l4.928,3.679
		l8.094-10.844l-4.93-3.68C177.124,156.764,177.951,153.503,178.22,150.154z M151.582,171.19c-6.284,0.915-12.538-0.675-17.622-4.47
		c-5.085-3.793-8.388-9.342-9.3-15.622s0.675-12.537,4.469-17.622c3.795-5.085,9.343-8.389,15.623-9.3
		c1.158-0.169,2.316-0.251,3.465-0.251c5.082,0,10.01,1.626,14.157,4.721c5.085,3.795,8.388,9.342,9.3,15.622
		s-0.675,12.537-4.47,17.622C163.409,166.974,157.862,170.278,151.582,171.19z"/>
	<path style="display:inline;" d="M139.33,100.086c-17.216,0-31.222-14.006-31.222-31.222c0-20.885,18.693-47.29,20.824-50.231
		L139.366,4.23l10.387,14.436c2.13,2.959,20.8,29.505,20.8,50.198C170.553,86.08,156.546,100.086,139.33,100.086z M139.319,51.251
		c-3.179,6.546-5.531,13.083-5.531,17.612c0,3.056,2.486,5.542,5.542,5.542s5.542-2.486,5.542-5.542
		C144.873,64.183,142.435,57.623,139.319,51.251z"/>
</g>
<g id="Layer_15" style="display:none;">
	<g style="display:inline;">
		<rect x="43.805" y="116.635" width="25.68" height="23.234"/>
		<path d="M56.74,46.263c-29.641,0-53.757,24.116-53.757,53.758c0,29.641,24.116,53.758,53.757,53.758
			c29.642,0,53.758-24.117,53.758-53.758C110.498,70.379,86.382,46.263,56.74,46.263z M56.74,147.359
			c-26.102,0-47.337-21.235-47.337-47.338c0-21.617,14.57-39.883,34.402-45.527v52.723h25.68V54.44
			c19.929,5.58,34.593,23.895,34.593,45.581C104.078,126.124,82.842,147.359,56.74,147.359z"/>
	</g>
	<path style="display:inline;" d="M178.625,12.366V5.914h-6.42v6.109h-6.42V5.914h-6.42v6.109h-6.42V5.914h-6.42v6.109h-6.42V5.914
		h-6.42v6.109h-6.42V5.914h-6.42v6.109h-6.42V5.914h-6.42v6.109h-6.42V5.914h-6.42v6.109h-6.42V5.914h-6.42v6.109h-6.42V5.914h-6.42
		v6.452c-9.119,1.691-16.05,9.69-16.05,19.291v9.256h6.42v-9.256c0-6.043,4.082-11.139,9.63-12.707v5.602h6.42v-6.11h6.42v6.11h6.42
		v-6.11h6.42v6.11h6.42v-6.11h6.42v6.11h6.42v-6.11h6.42v6.11h6.42v-6.11h6.42v6.11h6.42v-6.11h6.42v6.11h6.42v-6.11h6.42v6.11h6.42
		v-6.11h6.42v6.11h6.42V18.95c5.548,1.567,9.63,6.664,9.63,12.707v130.734c0,7.287-5.928,13.214-13.213,13.214H73.069
		c-7.286,0-13.214-5.927-13.214-13.214v-2.322h-6.42v2.322c0,10.825,8.808,19.634,19.634,19.634h101.973
		c10.825,0,19.633-8.809,19.633-19.634V31.657C194.675,22.056,187.743,14.057,178.625,12.366z"/>
	<polygon style="display:inline;" points="130.839,97.088 117.999,97.088 117.999,61.354 110.754,64.252 105.985,52.33 
		130.839,42.388 	"/>
	<polygon style="display:inline;" points="165.654,114.516 165.654,121.639 160.355,121.639 162.854,96.598 150.076,95.323 
		146.169,134.479 165.654,134.479 165.654,148.855 178.494,148.855 178.494,114.516 	"/>
	
		<rect x="110.057" y="92.773" transform="matrix(0.3346 -0.9424 0.9424 0.3346 3.1903 196.4852)" style="display:inline;" width="61.353" height="6.421"/>
</g>
<g id="Layer_16" style="display:none;">
	<g style="display:inline;">
		<rect x="43.975" y="116.635" width="25.68" height="23.234"/>
		<path d="M56.911,46.263c-29.642,0-53.759,24.116-53.759,53.758c0,29.641,24.117,53.758,53.759,53.758s53.757-24.117,53.757-53.758
			C110.668,70.379,86.554,46.263,56.911,46.263z M56.911,147.359c-26.102,0-47.339-21.235-47.339-47.338
			c0-21.617,14.571-39.883,34.403-45.527v52.723h25.68V54.44c19.929,5.58,34.593,23.894,34.593,45.581
			C104.248,126.124,83.013,147.359,56.911,147.359z"/>
	</g>
	<path style="display:inline;" d="M178.795,12.366V5.914h-6.42v6.109h-6.42V5.914h-6.42v6.109h-6.42V5.914h-6.42v6.109h-6.42V5.914
		h-6.42v6.109h-6.42V5.914h-6.42v6.109h-6.42V5.914h-6.42v6.109h-6.42V5.914h-6.42v6.109h-6.42V5.914h-6.42v6.109h-6.42V5.914h-6.42
		v6.452c-9.118,1.691-16.05,9.69-16.05,19.291v9.256h6.42v-9.256c0-6.043,4.081-11.14,9.63-12.707v5.603h6.42v-6.11h6.42v6.11h6.42
		v-6.11h6.42v6.11h6.42v-6.11h6.42v6.11h6.42v-6.11h6.42v6.11h6.42v-6.11h6.42v6.11h6.42v-6.11h6.42v6.11h6.42v-6.11h6.42v6.11h6.42
		v-6.11h6.42v6.11h6.42V18.95c5.548,1.567,9.63,6.664,9.63,12.707v130.734c0,7.287-5.927,13.214-13.212,13.214H73.239
		c-7.287,0-13.214-5.927-13.214-13.214v-2.322h-6.42v2.322c0,10.825,8.809,19.634,19.634,19.634h101.974
		c10.825,0,19.632-8.809,19.632-19.634V31.657C194.845,22.055,187.913,14.056,178.795,12.366z"/>
	<polygon style="display:inline;" points="157.884,142.009 132.204,142.009 132.204,83.065 122.16,87.083 112.622,63.24 
		157.884,45.134 	"/>
</g>
<g id="Layer_17" style="display:none;">
	<g style="display:inline;">
		<path d="M49.705,93.449c-15.487,0-28.086-12.6-28.086-28.086V43.339c0-15.487,12.6-28.086,28.086-28.086
			s28.086,12.6,28.086,28.086v22.024C77.791,80.85,65.191,93.449,49.705,93.449z M49.705,34.513c-4.867,0-8.826,3.959-8.826,8.826
			v22.024c0,4.867,3.959,8.826,8.826,8.826s8.826-3.959,8.826-8.826V43.339C58.531,38.472,54.572,34.513,49.705,34.513z"/>
		<polygon points="129.553,36.067 129.553,16.807 88.487,16.807 88.487,91.322 107.747,91.322 107.747,63.981 125.273,63.981 
			125.273,44.721 107.747,44.721 107.747,36.067 		"/>
		<polygon points="179.176,36.067 179.176,16.807 138.109,16.807 138.109,91.322 157.369,91.322 157.369,63.981 174.896,63.981 
			174.896,44.721 157.369,44.721 157.369,36.067 		"/>
	</g>
	<path style="display:inline;" d="M195.957,129.531v-6.42h-11.123c-0.107-5.327-0.466-10.672-1.101-15.933l-12.748,1.54
		c0.574,4.752,0.904,9.579,1.009,14.393H3.313l162.528,45.33c-1.419,4.685-3.072,9.309-4.974,13.859l11.845,4.953
		c2.108-5.043,3.93-10.17,5.493-15.363l11.234,3.133l1.726-6.186l-11.235-3.133c3.02-11.762,4.631-23.86,4.875-36.172H195.957z
		 M167.565,162.254L50.23,129.531h121.735C171.725,140.668,170.276,151.613,167.565,162.254z"/>
</g>
<g id="Layer_18" style="display:none;">
	<g style="display:inline;">
		<path d="M69.696,93.449c-15.487,0-28.086-12.6-28.086-28.086V43.339c0-15.487,12.6-28.086,28.086-28.086
			s28.086,12.6,28.086,28.086v22.024C97.782,80.85,85.183,93.449,69.696,93.449z M69.696,34.513c-4.867,0-8.826,3.959-8.826,8.826
			v22.024c0,4.867,3.959,8.826,8.826,8.826c4.867,0,8.826-3.959,8.826-8.826V43.339C78.522,38.472,74.563,34.513,69.696,34.513z"/>
		<polygon points="140.693,90.654 127.748,64.009 127.748,91.316 108.488,91.316 108.488,16.795 126.979,16.797 139.924,43.439 
			139.924,16.795 159.184,16.795 159.184,90.653 		"/>
	</g>
	<path style="display:inline;" d="M196.154,129.531v-6.42h-11.124c-0.107-5.335-0.465-10.68-1.099-15.933l-12.748,1.54
		c0.573,4.744,0.902,9.571,1.007,14.393H3.51l162.526,45.33c-1.419,4.685-3.072,9.309-4.974,13.859l11.845,4.953
		c2.108-5.043,3.93-10.17,5.493-15.363l11.234,3.133l1.726-6.186l-11.235-3.133c3.02-11.762,4.631-23.86,4.875-36.172H196.154z
		 M167.759,162.254L50.427,129.531h121.733C171.92,140.668,170.47,151.613,167.759,162.254z"/>
</g>
<g id="Layer_19" style="display:none;">
	<g style="display:inline;">
		<path d="M49.705,93.377c-15.487,0-28.086-12.6-28.086-28.086V43.267c0-15.487,12.6-28.086,28.086-28.086
			s28.086,12.6,28.086,28.086v22.024C77.791,80.777,65.191,93.377,49.705,93.377z M49.705,34.44c-4.867,0-8.826,3.959-8.826,8.826
			v22.024c0,4.867,3.959,8.826,8.826,8.826s8.826-3.959,8.826-8.826V43.267C58.531,38.4,54.572,34.44,49.705,34.44z"/>
		<polygon points="129.553,35.995 129.553,16.735 88.487,16.735 88.487,91.25 107.747,91.25 107.747,63.909 125.273,63.909 
			125.273,44.649 107.747,44.649 107.747,35.995 		"/>
		<polygon points="179.176,35.995 179.176,16.735 138.109,16.735 138.109,91.25 157.369,91.25 157.369,63.909 174.896,63.909 
			174.896,44.649 157.369,44.649 157.369,35.995 		"/>
	</g>
	<path style="display:inline;" d="M158.136,170.818c-9.963,0-18.07-8.107-18.07-18.071c0-9.964,8.107-18.071,18.07-18.071
		c9.963,0,18.07,8.107,18.07,18.071C176.205,162.711,168.099,170.818,158.136,170.818z M158.136,141.096
		c-6.424,0-11.65,5.227-11.65,11.651s5.226,11.651,11.65,11.651s11.65-5.227,11.65-11.651S164.56,141.096,158.136,141.096z"/>
	<path style="display:inline;" d="M42.658,170.818c-9.963,0-18.07-8.107-18.07-18.071c0-9.964,8.107-18.071,18.07-18.071
		s18.07,8.107,18.07,18.071C60.728,162.711,52.622,170.818,42.658,170.818z M42.658,141.096c-6.424,0-11.65,5.227-11.65,11.651
		s5.226,11.651,11.65,11.651s11.65-5.227,11.65-11.651S49.082,141.096,42.658,141.096z"/>
	<path style="display:inline;" d="M158.136,188.648l-0.131-6.42h0.131c6.353,0,12.402-1.987,17.493-5.747l3.814,5.162
		C173.24,186.226,165.872,188.648,158.136,188.648z M147.616,188.648H126.84v-6.42h20.776V188.648z M116.452,188.648H95.674v-6.42
		h20.777V188.648z M85.287,188.648H64.51v-6.42h20.777V188.648z M54.121,188.648H42.658c-3.426,0-6.82-0.483-10.087-1.438
		l1.799-6.161c2.681,0.782,5.47,1.179,8.287,1.179h11.463V188.648z M22.309,182.331c-6.28-4.33-11.106-10.667-13.589-17.843
		l6.067-2.098c2.039,5.891,6.004,11.097,11.166,14.654L22.309,182.331z M187.402,173.547l-5.231-3.724
		c3.563-5.005,5.446-10.909,5.446-17.076l-0.005-0.514l6.42-0.109l0.005,0.623C194.037,160.256,191.742,167.447,187.402,173.547z
		 M6.761,153.311l-0.005-0.564c0-7.534,2.309-14.746,6.678-20.857l5.223,3.732c-3.585,5.016-5.481,10.938-5.481,17.124l0.003,0.447
		L6.761,153.311z M185.986,143.05c-2.051-5.891-6.027-11.089-11.195-14.631l3.63-5.296c6.29,4.313,11.131,10.639,13.628,17.816
		L185.986,143.05z M25.211,128.979l-3.804-5.17c6.192-4.556,13.54-6.963,21.251-6.963l0.065,6.42h-0.065
		C36.327,123.265,30.294,125.242,25.211,128.979z M166.364,124.427c-2.658-0.771-5.426-1.162-8.229-1.162h-11.53v-6.42h11.53
		c3.407,0,6.778,0.476,10.018,1.417L166.364,124.427z M136.218,123.265h-20.777v-6.42h20.777V123.265z M105.053,123.265H84.276
		v-6.42h20.776V123.265z M73.888,123.265H53.112v-6.42h20.776V123.265z"/>
</g>
<g id="Layer_20" style="display:none;">
	<g style="display:inline;">
		<path d="M69.696,93.377c-15.487,0-28.086-12.6-28.086-28.086V43.267c0-15.487,12.6-28.086,28.086-28.086
			s28.086,12.6,28.086,28.086v22.024C97.782,80.777,85.183,93.377,69.696,93.377z M69.696,34.44c-4.867,0-8.826,3.959-8.826,8.826
			v22.024c0,4.867,3.959,8.826,8.826,8.826c4.867,0,8.826-3.959,8.826-8.826V43.267C78.522,38.4,74.563,34.44,69.696,34.44z"/>
		<polygon points="140.693,90.582 127.748,63.937 127.748,91.244 108.488,91.244 108.488,16.723 126.979,16.725 139.924,43.367 
			139.924,16.723 159.184,16.723 159.184,90.58 		"/>
	</g>
	<path style="display:inline;" d="M158.136,170.818c-9.963,0-18.07-8.107-18.07-18.071c0-9.964,8.107-18.071,18.07-18.071
		s18.07,8.107,18.07,18.071C176.206,162.711,168.099,170.818,158.136,170.818z M158.136,141.096c-6.424,0-11.65,5.227-11.65,11.651
		s5.226,11.651,11.65,11.651s11.65-5.227,11.65-11.651S164.56,141.096,158.136,141.096z"/>
	<path style="display:inline;" d="M42.658,170.818c-9.963,0-18.07-8.107-18.07-18.071c0-9.964,8.107-18.071,18.07-18.071
		s18.07,8.107,18.07,18.071C60.728,162.711,52.622,170.818,42.658,170.818z M42.658,141.096c-6.424,0-11.65,5.227-11.65,11.651
		s5.226,11.651,11.65,11.651s11.65-5.227,11.65-11.651S49.082,141.096,42.658,141.096z"/>
	<path style="display:inline;" d="M158.136,191.858l-0.131-12.84h0.131c5.661,0,11.051-1.77,15.585-5.12l7.63,10.328
		C174.591,189.219,166.563,191.858,158.136,191.858z M147.617,191.858H126.84v-12.84h20.776V191.858z M116.452,191.858H95.674
		v-12.84h20.777V191.858z M85.287,191.858H64.51v-12.84h20.777V191.858z M54.121,191.858H42.658c-3.73,0-7.426-0.527-10.985-1.565
		l3.597-12.326c2.39,0.698,4.876,1.051,7.389,1.051h11.463V191.858z M20.488,184.972c-6.84-4.715-12.096-11.615-14.801-19.433
		l12.134-4.201c1.817,5.252,5.352,9.891,9.955,13.064L20.488,184.972z M190.017,175.407l-10.462-7.444
		c3.174-4.46,4.852-9.722,4.852-15.216l-0.004-0.462l12.838-0.213l0.006,0.675C197.247,160.926,194.747,168.761,190.017,175.407z
		 M3.551,153.372l-0.005-0.625c0-8.207,2.516-16.065,7.277-22.725l10.445,7.469c-3.193,4.466-4.882,9.743-4.882,15.256l0.003,0.387
		L3.551,153.372z M182.955,144.105c-1.828-5.25-5.372-9.881-9.979-13.039l7.26-10.591c6.852,4.698,12.123,11.59,14.844,19.408
		L182.955,144.105z M27.114,131.566l-7.609-10.345c6.748-4.963,14.754-7.586,23.153-7.586l0.065,12.84h-0.065
		C37.016,126.475,31.641,128.235,27.114,131.566z M165.47,127.51c-2.368-0.685-4.835-1.034-7.334-1.034h-11.53v-12.84h11.53
		c3.711,0,7.381,0.52,10.912,1.544L165.47,127.51z M136.219,126.475h-20.777v-12.84h20.777V126.475z M105.053,126.475H84.276v-12.84
		h20.776V126.475z M73.888,126.475H53.112v-12.84h20.776V126.475z"/>
</g>
<g id="Layer_21" style="display:none;">
	<path style="display:inline;" d="M158.136,170.818c-9.963,0-18.07-8.107-18.07-18.071c0-9.964,8.107-18.071,18.07-18.071
		s18.07,8.107,18.07,18.071C176.206,162.711,168.099,170.818,158.136,170.818z M158.136,141.096c-6.424,0-11.65,5.227-11.65,11.651
		s5.226,11.651,11.65,11.651s11.65-5.227,11.65-11.651S164.56,141.096,158.136,141.096z"/>
	<path style="display:inline;" d="M42.658,174.028c-11.733,0-21.28-9.546-21.28-21.281c0-11.734,9.546-21.281,21.28-21.281
		s21.28,9.546,21.28,21.281C63.938,164.481,54.392,174.028,42.658,174.028z M42.658,144.306c-4.654,0-8.44,3.787-8.44,8.441
		s3.786,8.441,8.44,8.441s8.44-3.787,8.44-8.441S47.312,144.306,42.658,144.306z"/>
	<path style="display:inline;" d="M116.452,188.648H95.675v-6.42h20.777V188.648z M85.287,188.648H64.51v-6.42h20.777V188.648z
		 M54.121,188.648H42.658c-3.426,0-6.82-0.483-10.087-1.438l1.799-6.161c2.681,0.782,5.47,1.179,8.287,1.179h11.463V188.648z
		 M22.31,182.331C16.03,178,11.203,171.664,8.72,164.488l6.067-2.098c2.039,5.891,6.004,11.097,11.166,14.654L22.31,182.331z
		 M6.761,153.311l-0.005-0.564c0-7.534,2.309-14.746,6.678-20.857l5.223,3.732c-3.585,5.016-5.481,10.938-5.481,17.124l0.003,0.447
		L6.761,153.311z M25.211,128.979l-3.804-5.17c6.192-4.556,13.54-6.963,21.251-6.963l0.065,6.42h-0.065
		C36.327,123.265,30.294,125.242,25.211,128.979z M73.888,123.265H53.112v-6.42h20.776V123.265z"/>
	<path style="display:inline;" d="M158.136,191.858l-0.131-12.84h0.131c5.661,0,11.051-1.77,15.585-5.12l7.63,10.328
		C174.591,189.219,166.563,191.858,158.136,191.858z M147.617,191.858H126.84v-12.84h20.776V191.858z M190.017,175.407
		l-10.462-7.444c3.174-4.46,4.852-9.722,4.852-15.216l-0.004-0.462l12.838-0.213l0.006,0.675
		C197.247,160.926,194.747,168.761,190.017,175.407z M182.955,144.105c-1.828-5.25-5.372-9.881-9.979-13.039l7.26-10.591
		c6.852,4.698,12.123,11.59,14.844,19.408L182.955,144.105z M165.47,127.51c-2.368-0.685-4.835-1.034-7.334-1.034h-11.53v-12.84
		h11.53c3.711,0,7.381,0.52,10.912,1.544L165.47,127.51z M136.219,126.475h-20.777v-12.84h20.777V126.475z M105.053,126.475H84.277
		v-12.84h20.776V126.475z"/>
	<g style="display:inline;">
		<rect x="66.061" y="72.626" width="25.68" height="23.235"/>
		<path d="M78.997,2.255c-29.641,0-53.757,24.115-53.757,53.757s24.116,53.759,53.757,53.759c29.642,0,53.758-24.117,53.758-53.759
			S108.639,2.255,78.997,2.255z M78.997,103.351c-26.102,0-47.337-21.237-47.337-47.339c0-21.617,14.57-39.883,34.402-45.526V63.21
			h25.68V10.432c19.929,5.58,34.593,23.894,34.593,45.58C126.335,82.114,105.099,103.351,78.997,103.351z"/>
	</g>
	<polygon style="display:inline;" points="178.399,31.778 167.49,25.007 155.714,43.973 143.937,25.007 133.028,31.778 
		149.294,57.975 149.294,84.842 162.134,84.842 162.134,57.975 	"/>
</g>
<g id="Layer_22">
	<polygon points="152.789,63.773 134.633,45.614 100.397,79.851 66.161,45.614 48.004,63.773 82.239,98.008 48.004,132.244 
		66.161,150.402 100.397,116.166 134.633,150.402 152.789,132.244 118.554,98.008 	"/>
	<rect x="72.839" y="33.382" transform="matrix(0.7226 -0.6913 0.6913 0.7226 -2.5006 65.8836)" width="15.986" height="5.351"/>
	<rect x="158.439" y="31.777" transform="matrix(0.7226 -0.6913 0.6913 0.7226 21.2485 125.0599)" width="15.986" height="8.561"/>
	<rect x="141.319" y="32.099" transform="matrix(0.7228 -0.6911 0.6911 0.7228 16.4751 113.1841)" width="15.986" height="7.917"/>
	<rect x="124.199" y="32.42" transform="matrix(0.7227 -0.6911 0.6911 0.7227 11.7326 101.3594)" width="15.986" height="7.275"/>
	<rect x="107.079" y="32.74" transform="matrix(0.7227 -0.6912 0.6912 0.7227 6.9893 89.5344)" width="15.986" height="6.634"/>
	<rect x="89.959" y="33.061" transform="matrix(0.7226 -0.6912 0.6912 0.7226 2.245 77.7092)" width="15.986" height="5.992"/>
	<polygon points="93.918,2.364 87.036,9.354 3.353,9.354 3.353,35.034 11.409,35.034 5.614,40.577 7.537,42.587 15.434,35.034 
		28.065,35.034 22.512,40.345 24.878,42.819 33.018,35.034 44.721,35.034 39.411,40.113 42.22,43.051 50.602,35.034 61.755,35.034 
		56.257,40.618 59.613,43.92 97.274,5.666 	"/>
	<path d="M193.194,197.952c0-9.243-1.749-16.347-3.601-23.868c-0.788-3.202-1.603-6.514-2.334-10.173
		c-1.014-5.068-0.617-12.376,0.924-16.999l0.165-0.495v-6.435h-9.507V64.133l3.768-3.768l-3.183-15.914h-7.59l-3.183,15.914
		l3.768,3.768v75.849h-9.507v6.435l0.165,0.495c1.54,4.623,1.937,11.931,0.924,16.999c-0.731,3.659-1.546,6.972-2.334,10.173
		c-1.852,7.521-3.601,14.625-3.601,23.868h3.211c0,0,0,0.001,0,0.001h28.705c0,0,0-0.001,0-0.001H193.194z"/>
</g>
<g id="Layer_23" style="display:none;">
	<rect x="62.811" y="42.583" style="display:inline;" width="25.68" height="74.614"/>
	<rect x="62.811" y="133.516" style="display:inline;" width="25.68" height="23.943"/>
	<path style="display:inline;" d="M166.007,7.67H34.786c-14.744,0-26.74,11.996-26.74,26.742v131.219
		c0,14.746,11.996,26.742,26.74,26.742h131.221c14.744,0,26.74-11.996,26.74-26.742V34.412
		C192.747,19.666,180.751,7.67,166.007,7.67z M186.327,165.631c0,11.206-9.116,20.322-20.32,20.322h-14.464
		c-0.351-8.424-2.028-15.285-3.802-22.489c-0.851-3.454-1.73-7.028-2.52-10.976c-1.099-5.509-0.669-13.448,1.005-18.468l0.165-0.495
		v-6.648h-10.255V44.696l4.044-4.044l-3.367-16.834h-7.776l-3.365,16.834l4.044,4.044v82.181H119.46v6.648l0.165,0.495
		c1.674,5.024,2.107,12.963,1.005,18.468c-0.79,3.948-1.67,7.521-2.52,10.976c-1.773,7.204-3.45,14.065-3.802,22.489H34.786
		c-11.204,0-20.32-9.116-20.32-20.322V34.412c0-11.206,9.116-20.322,20.32-20.322h131.221c11.204,0,20.32,9.116,20.32,20.322
		V165.631z"/>
</g>
<g id="Layer_24" style="display:none;">
	<path style="display:inline;" d="M166.007,192.372H34.786c-14.744,0-26.74-11.996-26.74-26.742V34.412
		c0-14.746,11.996-26.742,26.74-26.742h131.221c14.744,0,26.74,11.996,26.74,26.742v131.219
		C192.747,180.377,180.751,192.372,166.007,192.372z M34.786,14.09c-11.204,0-20.32,9.116-20.32,20.322v131.219
		c0,11.206,9.116,20.322,20.32,20.322h131.221c11.204,0,20.32-9.116,20.32-20.322V34.412c0-11.206-9.116-20.322-20.32-20.322H34.786
		z"/>
	<path style="display:inline;" d="M108.008,90.392h-1.191V65.034h19.519v-19.26h-19.519V33.741h-12.84v12.033h-1.191
		c-17.611,0-31.939,14.328-31.939,31.939s14.328,31.939,31.939,31.939h1.191v25.356H74.458v19.26h19.519v12.033h12.84v-12.033h1.191
		c17.611,0,31.939-14.328,31.939-31.939S125.619,90.392,108.008,90.392z M92.785,90.392c-6.991,0-12.679-5.689-12.679-12.679
		c0-6.991,5.689-12.679,12.679-12.679h1.191v25.358H92.785z M108.008,135.008h-1.191v-25.356h1.191
		c6.991,0,12.679,5.686,12.679,12.677C120.687,129.32,114.998,135.008,108.008,135.008z"/>
</g>
<g id="Layer_25" style="display:none;">
	<g style="display:inline;">
		<rect x="119.563" y="116.634" width="25.68" height="23.235"/>
		<path d="M132.497,46.263c-29.642,0-53.757,24.117-53.757,53.759s24.115,53.757,53.757,53.757s53.757-24.115,53.757-53.757
			S162.139,46.263,132.497,46.263z M132.497,147.359c-26.102,0-47.337-21.235-47.337-47.337c0-21.618,14.571-39.885,34.403-45.528
			v52.723h25.68V54.441c19.928,5.581,34.591,23.896,34.591,45.582C179.834,126.124,158.599,147.359,132.497,147.359z"/>
	</g>
	<path style="display:inline;" d="M47.315,93.602h-2.094V75.349h14.867v-12.84H45.221V53.83h-6.42v8.679h-2.094
		c-12.113,0-21.966,9.854-21.966,21.966s9.854,21.966,21.966,21.966h2.094v18.253H23.934v12.84h14.867v8.677h6.42v-8.677h2.094
		c12.113,0,21.966-9.854,21.966-21.966S59.427,93.602,47.315,93.602z M36.707,93.602c-5.032,0-9.126-4.094-9.126-9.126
		c0-5.032,4.094-9.126,9.126-9.126h2.094v18.253H36.707z M47.315,124.695h-2.094v-18.253h2.094c5.032,0,9.126,4.094,9.126,9.126
		C56.441,120.601,52.347,124.695,47.315,124.695z"/>
</g>
<g id="Layer_26" style="display:none;">
	<path style="display:inline;" d="M186.254,100.022c0-10.177-2.843-19.703-7.776-27.825l6.412-6.412l-18.157-18.159l-6.412,6.412
		c-8.122-4.933-17.647-7.776-27.824-7.776s-19.702,2.843-27.824,7.776l-6.412-6.412L80.104,65.786l6.412,6.412
		c-4.933,8.122-7.776,17.648-7.776,27.825c0,10.177,2.843,19.701,7.776,27.823l-6.411,6.411l18.157,18.159l6.412-6.412
		c8.122,4.933,17.647,7.776,27.824,7.776c10.177,0,19.702-2.843,27.824-7.776l6.412,6.412l18.157-18.159l-6.411-6.411
		C183.411,119.724,186.254,110.199,186.254,100.022z M179.834,100.022c0,8.395-2.206,16.28-6.055,23.124l-23.125-23.125
		l23.124-23.125C177.628,83.741,179.834,91.627,179.834,100.022z M132.497,52.683c8.395,0,16.281,2.206,23.125,6.056l-23.125,23.125
		l-23.125-23.125C116.216,54.889,124.102,52.683,132.497,52.683z M85.16,100.022c0-8.395,2.206-16.281,6.055-23.126l23.124,23.125
		l-23.125,23.125C87.366,116.303,85.16,108.417,85.16,100.022z M132.497,147.359c-8.395,0-16.281-2.206-23.125-6.055l23.125-23.125
		l23.125,23.125C148.778,145.153,140.892,147.359,132.497,147.359z"/>
	<path style="display:inline;" d="M47.315,93.602h-2.094V75.349h14.867v-12.84H45.221V53.83h-6.42v8.679h-2.094
		c-12.113,0-21.966,9.854-21.966,21.966s9.854,21.966,21.966,21.966h2.094v18.253H23.934v12.84h14.867v8.677h6.42v-8.677h2.094
		c12.113,0,21.966-9.854,21.966-21.966S59.428,93.602,47.315,93.602z M36.707,93.602c-5.032,0-9.126-4.094-9.126-9.126
		c0-5.032,4.094-9.126,9.126-9.126h2.094v18.253H36.707z M47.315,124.695h-2.094v-18.253h2.094c5.032,0,9.126,4.094,9.126,9.126
		C56.441,120.601,52.347,124.695,47.315,124.695z"/>
</g>
</svg>
